<?xml version="1.0" encoding="UTF-8" standalone="no"?>
<!DOCTYPE svg PUBLIC "-//W3C//DTD SVG 1.1//EN"
 "http://www.w3.org/Graphics/SVG/1.1/DTD/svg11.dtd">
<!-- Generated by graphviz version 2.43.0 (0)
 -->
<!-- Title: G Pages: 1 -->
<svg width="1194pt" height="867pt"
 viewBox="0.00 0.00 1193.60 867.41" xmlns="http://www.w3.org/2000/svg" xmlns:xlink="http://www.w3.org/1999/xlink">
<g id="graph0" class="graph" transform="scale(1 1) rotate(0) translate(4 863.41)">
<title>G</title>
<polygon fill="white" stroke="transparent" points="-4,4 -4,-863.41 1189.6,-863.41 1189.6,4 -4,4"/>
<!-- azoteq_iqs5xx_get_report -->
<g id="node1" class="node">
<title>azoteq_iqs5xx_get_report</title>
<ellipse fill="none" stroke="black" cx="129.34" cy="-47.41" rx="129.18" ry="18"/>
<text text-anchor="middle" x="129.34" y="-43.71" font-family="Times,serif" font-size="14.00">azoteq_iqs5xx_get_report</text>
</g>
<!-- azoteq_iqs5xx_get_base_data -->
<g id="node2" class="node">
<title>azoteq_iqs5xx_get_base_data</title>
<ellipse fill="none" stroke="black" cx="461.71" cy="-355.41" rx="146.47" ry="18"/>
<text text-anchor="middle" x="461.71" y="-351.71" font-family="Times,serif" font-size="14.00">azoteq_iqs5xx_get_base_data</text>
</g>
<!-- azoteq_iqs5xx_get_report&#45;&gt;azoteq_iqs5xx_get_base_data -->
<g id="edge1" class="edge">
<title>azoteq_iqs5xx_get_report&#45;&gt;azoteq_iqs5xx_get_base_data</title>
<path fill="none" stroke="black" d="M135.07,-65.59C149.38,-116.58 197.28,-261.58 294.68,-328.41 303.62,-334.54 313.46,-339.47 323.75,-343.4"/>
<polygon fill="black" stroke="black" points="322.72,-346.75 333.32,-346.74 325.03,-340.14 322.72,-346.75"/>
</g>
<!-- pointing_device_handle_buttons -->
<g id="node3" class="node">
<title>pointing_device_handle_buttons</title>
<ellipse fill="none" stroke="black" cx="461.71" cy="-47.41" rx="159.47" ry="18"/>
<text text-anchor="middle" x="461.71" y="-43.71" font-family="Times,serif" font-size="14.00">pointing_device_handle_buttons</text>
</g>
<!-- azoteq_iqs5xx_get_report&#45;&gt;pointing_device_handle_buttons -->
<g id="edge2" class="edge">
<title>azoteq_iqs5xx_get_report&#45;&gt;pointing_device_handle_buttons</title>
<path fill="none" stroke="black" d="M140.96,-29.29C188.24,7.63 380,9.46 441.58,-23.81"/>
<polygon fill="black" stroke="black" points="440,-26.96 450.3,-29.45 443.8,-21.08 440,-26.96"/>
</g>
<!-- azoteq_iqs5xx_get_report&#45;&gt;pointing_device_handle_buttons -->
<g id="edge3" class="edge">
<title>azoteq_iqs5xx_get_report&#45;&gt;pointing_device_handle_buttons</title>
<path fill="none" stroke="black" d="M152.02,-29.61C208.84,-9.43 362.3,-8.4 429.02,-26.51"/>
<polygon fill="black" stroke="black" points="428.37,-29.97 438.96,-29.58 430.44,-23.28 428.37,-29.97"/>
</g>
<!-- azoteq_iqs5xx_get_report&#45;&gt;pointing_device_handle_buttons -->
<g id="edge4" class="edge">
<title>azoteq_iqs5xx_get_report&#45;&gt;pointing_device_handle_buttons</title>
<path fill="none" stroke="black" d="M189.4,-31.46C244.41,-26.2 326.63,-25.76 386.14,-30.15"/>
<polygon fill="black" stroke="black" points="385.98,-33.65 396.23,-30.96 386.54,-26.67 385.98,-33.65"/>
</g>
<!-- azoteq_iqs5xx_get_report&#45;&gt;pointing_device_handle_buttons -->
<g id="edge5" class="edge">
<title>azoteq_iqs5xx_get_report&#45;&gt;pointing_device_handle_buttons</title>
<path fill="none" stroke="black" d="M250.08,-40.89C267.53,-40.71 285.71,-40.63 303.77,-40.66"/>
<polygon fill="black" stroke="black" points="303.77,-44.16 313.78,-40.69 303.79,-37.16 303.77,-44.16"/>
</g>
<!-- azoteq_iqs5xx_get_report&#45;&gt;pointing_device_handle_buttons -->
<g id="edge6" class="edge">
<title>azoteq_iqs5xx_get_report&#45;&gt;pointing_device_handle_buttons</title>
<path fill="none" stroke="black" d="M250.08,-53.92C267.53,-54.11 285.71,-54.18 303.77,-54.15"/>
<polygon fill="black" stroke="black" points="303.79,-57.65 313.78,-54.12 303.77,-50.65 303.79,-57.65"/>
</g>
<!-- azoteq_iqs5xx_get_report&#45;&gt;pointing_device_handle_buttons -->
<g id="edge7" class="edge">
<title>azoteq_iqs5xx_get_report&#45;&gt;pointing_device_handle_buttons</title>
<path fill="none" stroke="black" d="M189.4,-63.35C244.41,-68.62 326.63,-69.05 386.14,-64.66"/>
<polygon fill="black" stroke="black" points="386.54,-68.14 396.23,-63.85 385.98,-61.16 386.54,-68.14"/>
</g>
<!-- azoteq_iqs5xx_get_report&#45;&gt;pointing_device_handle_buttons -->
<g id="edge8" class="edge">
<title>azoteq_iqs5xx_get_report&#45;&gt;pointing_device_handle_buttons</title>
<path fill="none" stroke="black" d="M152.02,-65.2C208.84,-85.39 362.3,-86.42 429.02,-68.3"/>
<polygon fill="black" stroke="black" points="430.44,-71.53 438.96,-65.23 428.37,-64.84 430.44,-71.53"/>
</g>
<!-- azoteq_iqs5xx_get_report&#45;&gt;pointing_device_handle_buttons -->
<g id="edge9" class="edge">
<title>azoteq_iqs5xx_get_report&#45;&gt;pointing_device_handle_buttons</title>
<path fill="none" stroke="black" d="M140.96,-65.53C188.24,-102.44 380,-104.27 441.58,-71.01"/>
<polygon fill="black" stroke="black" points="443.8,-73.74 450.3,-65.37 440,-67.86 443.8,-73.74"/>
</g>
<!-- i2c_read_register16 -->
<g id="node17" class="node">
<title>i2c_read_register16</title>
<ellipse fill="none" stroke="black" cx="800.59" cy="-355.41" rx="102.88" ry="18"/>
<text text-anchor="middle" x="800.59" y="-351.71" font-family="Times,serif" font-size="14.00">i2c_read_register16</text>
</g>
<!-- azoteq_iqs5xx_get_base_data&#45;&gt;i2c_read_register16 -->
<g id="edge48" class="edge">
<title>azoteq_iqs5xx_get_base_data&#45;&gt;i2c_read_register16</title>
<path fill="none" stroke="black" d="M608.02,-355.41C634.75,-355.41 662.26,-355.41 687.81,-355.41"/>
<polygon fill="black" stroke="black" points="687.88,-358.91 697.88,-355.41 687.88,-351.91 687.88,-358.91"/>
</g>
<!-- azoteq_iqs5xx_end_session -->
<g id="node20" class="node">
<title>azoteq_iqs5xx_end_session</title>
<ellipse fill="none" stroke="black" cx="800.59" cy="-413.41" rx="135.68" ry="18"/>
<text text-anchor="middle" x="800.59" y="-409.71" font-family="Times,serif" font-size="14.00">azoteq_iqs5xx_end_session</text>
</g>
<!-- azoteq_iqs5xx_get_base_data&#45;&gt;azoteq_iqs5xx_end_session -->
<g id="edge49" class="edge">
<title>azoteq_iqs5xx_get_base_data&#45;&gt;azoteq_iqs5xx_end_session</title>
<path fill="none" stroke="black" d="M551.95,-369.61C576.82,-373.65 603.85,-378.12 628.75,-382.41 655.35,-386.98 684.25,-392.15 710.58,-396.94"/>
<polygon fill="black" stroke="black" points="710.07,-400.4 720.54,-398.75 711.33,-393.52 710.07,-400.4"/>
</g>
<!-- azoteq_iqs5xx_init -->
<g id="node4" class="node">
<title>azoteq_iqs5xx_init</title>
<ellipse fill="none" stroke="black" cx="129.34" cy="-652.41" rx="96.38" ry="18"/>
<text text-anchor="middle" x="129.34" y="-648.71" font-family="Times,serif" font-size="14.00">azoteq_iqs5xx_init</text>
</g>
<!-- i2c_init -->
<g id="node5" class="node">
<title>i2c_init</title>
<ellipse fill="none" stroke="black" cx="461.71" cy="-841.41" rx="44.39" ry="18"/>
<text text-anchor="middle" x="461.71" y="-837.71" font-family="Times,serif" font-size="14.00">i2c_init</text>
</g>
<!-- azoteq_iqs5xx_init&#45;&gt;i2c_init -->
<g id="edge10" class="edge">
<title>azoteq_iqs5xx_init&#45;&gt;i2c_init</title>
<path fill="none" stroke="black" d="M142.58,-670.39C167.03,-704.72 225.55,-779.32 294.68,-814.41 329.49,-832.08 373.21,-838.66 407.05,-840.91"/>
<polygon fill="black" stroke="black" points="407.04,-844.41 417.22,-841.48 407.43,-837.42 407.04,-844.41"/>
</g>
<!-- i2c_ping_address -->
<g id="node6" class="node">
<title>i2c_ping_address</title>
<ellipse fill="none" stroke="black" cx="461.71" cy="-787.41" rx="90.18" ry="18"/>
<text text-anchor="middle" x="461.71" y="-783.71" font-family="Times,serif" font-size="14.00">i2c_ping_address</text>
</g>
<!-- azoteq_iqs5xx_init&#45;&gt;i2c_ping_address -->
<g id="edge11" class="edge">
<title>azoteq_iqs5xx_init&#45;&gt;i2c_ping_address</title>
<path fill="none" stroke="black" d="M158.54,-669.72C189.73,-692.48 242.5,-731.09 294.68,-751.41 323.28,-762.54 356.39,-769.09 385.47,-773.55"/>
<polygon fill="black" stroke="black" points="385.18,-777.05 395.58,-775.05 386.2,-770.12 385.18,-777.05"/>
</g>
<!-- azoteq_iqs5xx_init&#45;&gt;i2c_ping_address -->
<g id="edge14" class="edge">
<title>azoteq_iqs5xx_init&#45;&gt;i2c_ping_address</title>
<path fill="none" stroke="black" d="M144.99,-670.45C172.34,-697.27 233.91,-745.75 294.68,-769.41 315.66,-777.58 339.06,-783.27 361.52,-787"/>
<polygon fill="black" stroke="black" points="361,-790.46 371.42,-788.53 362.07,-783.54 361,-790.46"/>
</g>
<!-- azoteq_iqs5xx_reset_suspend -->
<g id="node7" class="node">
<title>azoteq_iqs5xx_reset_suspend</title>
<ellipse fill="none" stroke="black" cx="461.71" cy="-571.41" rx="147.57" ry="18"/>
<text text-anchor="middle" x="461.71" y="-567.71" font-family="Times,serif" font-size="14.00">azoteq_iqs5xx_reset_suspend</text>
</g>
<!-- azoteq_iqs5xx_init&#45;&gt;azoteq_iqs5xx_reset_suspend -->
<g id="edge12" class="edge">
<title>azoteq_iqs5xx_init&#45;&gt;azoteq_iqs5xx_reset_suspend</title>
<path fill="none" stroke="black" d="M173.06,-636.33C205.92,-624.46 252.66,-608.66 294.68,-598.41 313.16,-593.9 332.99,-589.93 352.28,-586.53"/>
<polygon fill="black" stroke="black" points="353.05,-589.95 362.31,-584.8 351.86,-583.05 353.05,-589.95"/>
</g>
<!-- wait_ms -->
<g id="node8" class="node">
<title>wait_ms</title>
<ellipse fill="none" stroke="black" cx="461.71" cy="-679.41" rx="48.99" ry="18"/>
<text text-anchor="middle" x="461.71" y="-675.71" font-family="Times,serif" font-size="14.00">wait_ms</text>
</g>
<!-- azoteq_iqs5xx_init&#45;&gt;wait_ms -->
<g id="edge13" class="edge">
<title>azoteq_iqs5xx_init&#45;&gt;wait_ms</title>
<path fill="none" stroke="black" d="M225.45,-654C284.89,-657.83 359.19,-664.26 408.2,-670.02"/>
<polygon fill="black" stroke="black" points="407.92,-673.51 418.27,-671.24 408.76,-666.56 407.92,-673.51"/>
</g>
<!-- azoteq_iqs5xx_init&#45;&gt;wait_ms -->
<g id="edge25" class="edge">
<title>azoteq_iqs5xx_init&#45;&gt;wait_ms</title>
<path fill="none" stroke="black" d="M202.84,-664.03C262.92,-670.47 347.19,-677.22 402.83,-679.95"/>
<polygon fill="black" stroke="black" points="402.72,-683.45 412.87,-680.42 403.04,-676.46 402.72,-683.45"/>
</g>
<!-- azoteq_iqs5xx_get_product -->
<g id="node9" class="node">
<title>azoteq_iqs5xx_get_product</title>
<ellipse fill="none" stroke="black" cx="461.71" cy="-139.41" rx="135.68" ry="18"/>
<text text-anchor="middle" x="461.71" y="-135.71" font-family="Times,serif" font-size="14.00">azoteq_iqs5xx_get_product</text>
</g>
<!-- azoteq_iqs5xx_init&#45;&gt;azoteq_iqs5xx_get_product -->
<g id="edge15" class="edge">
<title>azoteq_iqs5xx_init&#45;&gt;azoteq_iqs5xx_get_product</title>
<path fill="none" stroke="black" d="M130.3,-634.29C131.2,-562.18 144.84,-293.37 294.68,-166.41 303.21,-159.18 312.9,-153.51 323.21,-149.09"/>
<polygon fill="black" stroke="black" points="324.77,-152.24 332.85,-145.38 322.26,-145.71 324.77,-152.24"/>
</g>
<!-- azoteq_iqs5xx_setup_resolution -->
<g id="node10" class="node">
<title>azoteq_iqs5xx_setup_resolution</title>
<ellipse fill="none" stroke="black" cx="461.71" cy="-625.41" rx="157.07" ry="18"/>
<text text-anchor="middle" x="461.71" y="-621.71" font-family="Times,serif" font-size="14.00">azoteq_iqs5xx_setup_resolution</text>
</g>
<!-- azoteq_iqs5xx_init&#45;&gt;azoteq_iqs5xx_setup_resolution -->
<g id="edge16" class="edge">
<title>azoteq_iqs5xx_init&#45;&gt;azoteq_iqs5xx_setup_resolution</title>
<path fill="none" stroke="black" d="M218.01,-645.24C250.24,-642.61 287.58,-639.56 323.15,-636.65"/>
<polygon fill="black" stroke="black" points="323.45,-640.14 333.13,-635.83 322.88,-633.16 323.45,-640.14"/>
</g>
<!-- azoteq_iqs5xx_set_report_rate -->
<g id="node11" class="node">
<title>azoteq_iqs5xx_set_report_rate</title>
<ellipse fill="none" stroke="black" cx="461.71" cy="-733.41" rx="151.37" ry="18"/>
<text text-anchor="middle" x="461.71" y="-729.71" font-family="Times,serif" font-size="14.00">azoteq_iqs5xx_set_report_rate</text>
</g>
<!-- azoteq_iqs5xx_init&#45;&gt;azoteq_iqs5xx_set_report_rate -->
<g id="edge17" class="edge">
<title>azoteq_iqs5xx_init&#45;&gt;azoteq_iqs5xx_set_report_rate</title>
<path fill="none" stroke="black" d="M206.54,-663.27C234.04,-671.49 265.5,-681.29 294.68,-688.41 335.69,-698.41 383.32,-705.73 417.02,-713.44"/>
<polygon fill="black" stroke="black" points="416.47,-716.91 427.01,-715.85 418.11,-710.1 416.47,-716.91"/>
</g>
<!-- azoteq_iqs5xx_init&#45;&gt;azoteq_iqs5xx_set_report_rate -->
<g id="edge18" class="edge">
<title>azoteq_iqs5xx_init&#45;&gt;azoteq_iqs5xx_set_report_rate</title>
<path fill="none" stroke="black" d="M173.06,-668.48C205.92,-680.35 252.66,-696.16 294.68,-706.41 312.92,-710.86 332.47,-714.78 351.52,-718.15"/>
<polygon fill="black" stroke="black" points="350.98,-721.61 361.43,-719.86 352.17,-714.71 350.98,-721.61"/>
</g>
<!-- azoteq_iqs5xx_init&#45;&gt;azoteq_iqs5xx_set_report_rate -->
<g id="edge19" class="edge">
<title>azoteq_iqs5xx_init&#45;&gt;azoteq_iqs5xx_set_report_rate</title>
<path fill="none" stroke="black" d="M147.83,-670.14C177.58,-688.42 240.12,-711.09 294.68,-724.41 298.04,-725.23 301.45,-726.03 304.89,-726.81"/>
<polygon fill="black" stroke="black" points="304.16,-730.24 314.67,-728.97 305.66,-723.4 304.16,-730.24"/>
</g>
<!-- i2c_write_register16 -->
<g id="node12" class="node">
<title>i2c_write_register16</title>
<ellipse fill="none" stroke="black" cx="1079.01" cy="-413.41" rx="106.68" ry="18"/>
<text text-anchor="middle" x="1079.01" y="-409.71" font-family="Times,serif" font-size="14.00">i2c_write_register16</text>
</g>
<!-- azoteq_iqs5xx_init&#45;&gt;i2c_write_register16 -->
<g id="edge20" class="edge">
<title>azoteq_iqs5xx_init&#45;&gt;i2c_write_register16</title>
<path fill="none" stroke="black" d="M132.96,-634.33C145.88,-547.89 205.8,-178.26 294.68,-112.41 410.08,-26.9 820.04,-105.23 936.42,-189.41 1006.75,-240.27 1050.32,-337.82 1068.37,-385.62"/>
<polygon fill="black" stroke="black" points="1065.2,-387.12 1071.94,-395.3 1071.77,-384.71 1065.2,-387.12"/>
</g>
<!-- azoteq_iqs5xx_set_event_mode -->
<g id="node13" class="node">
<title>azoteq_iqs5xx_set_event_mode</title>
<ellipse fill="none" stroke="black" cx="461.71" cy="-517.41" rx="154.87" ry="18"/>
<text text-anchor="middle" x="461.71" y="-513.71" font-family="Times,serif" font-size="14.00">azoteq_iqs5xx_set_event_mode</text>
</g>
<!-- azoteq_iqs5xx_init&#45;&gt;azoteq_iqs5xx_set_event_mode -->
<g id="edge21" class="edge">
<title>azoteq_iqs5xx_init&#45;&gt;azoteq_iqs5xx_set_event_mode</title>
<path fill="none" stroke="black" d="M151.04,-634.58C180.72,-610.06 238.05,-566.46 294.68,-544.41 307.94,-539.24 322.18,-535.06 336.53,-531.69"/>
<polygon fill="black" stroke="black" points="337.48,-535.06 346.48,-529.47 335.96,-528.23 337.48,-535.06"/>
</g>
<!-- azoteq_iqs5xx_set_reati -->
<g id="node14" class="node">
<title>azoteq_iqs5xx_set_reati</title>
<ellipse fill="none" stroke="black" cx="461.71" cy="-463.41" rx="120.78" ry="18"/>
<text text-anchor="middle" x="461.71" y="-459.71" font-family="Times,serif" font-size="14.00">azoteq_iqs5xx_set_reati</text>
</g>
<!-- azoteq_iqs5xx_init&#45;&gt;azoteq_iqs5xx_set_reati -->
<g id="edge22" class="edge">
<title>azoteq_iqs5xx_init&#45;&gt;azoteq_iqs5xx_set_reati</title>
<path fill="none" stroke="black" d="M142.58,-634.43C167.03,-600.09 225.55,-525.5 294.68,-490.41 309.48,-482.89 325.9,-477.38 342.48,-473.36"/>
<polygon fill="black" stroke="black" points="343.26,-476.77 352.25,-471.16 341.72,-469.94 343.26,-476.77"/>
</g>
<!-- azoteq_iqs5xx_set_xy_config -->
<g id="node15" class="node">
<title>azoteq_iqs5xx_set_xy_config</title>
<ellipse fill="none" stroke="black" cx="461.71" cy="-247.41" rx="141.88" ry="18"/>
<text text-anchor="middle" x="461.71" y="-243.71" font-family="Times,serif" font-size="14.00">azoteq_iqs5xx_set_xy_config</text>
</g>
<!-- azoteq_iqs5xx_init&#45;&gt;azoteq_iqs5xx_set_xy_config -->
<g id="edge23" class="edge">
<title>azoteq_iqs5xx_init&#45;&gt;azoteq_iqs5xx_set_xy_config</title>
<path fill="none" stroke="black" d="M132.24,-634.13C139.71,-572.22 172.94,-369.07 294.68,-274.41 303.06,-267.89 312.42,-262.67 322.3,-258.53"/>
<polygon fill="black" stroke="black" points="323.81,-261.7 331.92,-254.87 321.32,-255.15 323.81,-261.7"/>
</g>
<!-- azoteq_iqs5xx_set_gesture_config -->
<g id="node16" class="node">
<title>azoteq_iqs5xx_set_gesture_config</title>
<ellipse fill="none" stroke="black" cx="461.71" cy="-193.41" rx="167.07" ry="18"/>
<text text-anchor="middle" x="461.71" y="-189.71" font-family="Times,serif" font-size="14.00">azoteq_iqs5xx_set_gesture_config</text>
</g>
<!-- azoteq_iqs5xx_init&#45;&gt;azoteq_iqs5xx_set_gesture_config -->
<g id="edge24" class="edge">
<title>azoteq_iqs5xx_init&#45;&gt;azoteq_iqs5xx_set_gesture_config</title>
<path fill="none" stroke="black" d="M131.17,-633.99C135.26,-566.5 159.12,-330.98 294.68,-220.41 300.59,-215.58 307.02,-211.46 313.81,-207.96"/>
<polygon fill="black" stroke="black" points="315.69,-210.94 323.27,-203.54 312.73,-204.6 315.69,-210.94"/>
</g>
<!-- azoteq_iqs5xx_reset_suspend&#45;&gt;i2c_write_register16 -->
<g id="edge30" class="edge">
<title>azoteq_iqs5xx_reset_suspend&#45;&gt;i2c_write_register16</title>
<path fill="none" stroke="black" d="M596.75,-564.07C693.49,-555.54 825.98,-537.12 936.42,-497.41 976.95,-482.83 1018.83,-456.31 1046.42,-436.96"/>
<polygon fill="black" stroke="black" points="1048.74,-439.6 1054.86,-430.95 1044.68,-433.9 1048.74,-439.6"/>
</g>
<!-- azoteq_iqs5xx_reset_suspend&#45;&gt;i2c_read_register16 -->
<g id="edge29" class="edge">
<title>azoteq_iqs5xx_reset_suspend&#45;&gt;i2c_read_register16</title>
<path fill="none" stroke="black" d="M597.26,-564.29C608.83,-559.47 619.59,-553 628.75,-544.41 681.25,-495.1 613.87,-437.38 664.75,-386.41 673.72,-377.42 684.73,-370.82 696.57,-366.01"/>
<polygon fill="black" stroke="black" points="698,-369.21 706.21,-362.52 695.62,-362.63 698,-369.21"/>
</g>
<!-- azoteq_iqs5xx_reset_suspend&#45;&gt;azoteq_iqs5xx_end_session -->
<g id="edge31" class="edge">
<title>azoteq_iqs5xx_reset_suspend&#45;&gt;azoteq_iqs5xx_end_session</title>
<path fill="none" stroke="black" d="M577.81,-560.28C595.29,-556.44 612.8,-551.3 628.75,-544.41 687.58,-519 744.25,-468.86 775.25,-438.51"/>
<polygon fill="black" stroke="black" points="777.93,-440.78 782.57,-431.25 773,-435.81 777.93,-440.78"/>
</g>
<!-- azoteq_iqs5xx_get_product&#45;&gt;i2c_read_register16 -->
<g id="edge26" class="edge">
<title>azoteq_iqs5xx_get_product&#45;&gt;i2c_read_register16</title>
<path fill="none" stroke="black" d="M580.34,-148.34C597.21,-152.49 613.87,-158.31 628.75,-166.41 700.59,-205.52 757.79,-286.75 784.01,-328.84"/>
<polygon fill="black" stroke="black" points="781.07,-330.74 789.27,-337.44 787.04,-327.08 781.07,-330.74"/>
</g>
<!-- azoteq_iqs5xx_set_report_rate&#45;&gt;i2c_write_register16 -->
<g id="edge44" class="edge">
<title>azoteq_iqs5xx_set_report_rate&#45;&gt;i2c_write_register16</title>
<path fill="none" stroke="black" d="M572.06,-720.96C591.23,-717.27 610.78,-712.52 628.75,-706.41 775.84,-656.35 809.33,-629.79 936.42,-540.41 980.86,-509.15 1026.67,-465.61 1053.72,-438.49"/>
<polygon fill="black" stroke="black" points="1056.29,-440.87 1060.84,-431.3 1051.32,-435.94 1056.29,-440.87"/>
</g>
<!-- azoteq_iqs5xx_set_report_rate&#45;&gt;azoteq_iqs5xx_end_session -->
<g id="edge45" class="edge">
<title>azoteq_iqs5xx_set_report_rate&#45;&gt;azoteq_iqs5xx_end_session</title>
<path fill="none" stroke="black" d="M592.24,-724.07C605.22,-719.76 617.68,-714.02 628.75,-706.41 635.05,-702.08 743.55,-511.95 784.29,-440.32"/>
<polygon fill="black" stroke="black" points="787.46,-441.84 789.36,-431.42 781.37,-438.38 787.46,-441.84"/>
</g>
<!-- azoteq_iqs5xx_set_event_mode&#45;&gt;i2c_write_register16 -->
<g id="edge39" class="edge">
<title>azoteq_iqs5xx_set_event_mode&#45;&gt;i2c_write_register16</title>
<path fill="none" stroke="black" d="M602.22,-509.82C697.32,-502.62 825.62,-488.94 936.42,-463.41 967.87,-456.16 1002.02,-444.23 1028.89,-433.84"/>
<polygon fill="black" stroke="black" points="1030.42,-437 1038.45,-430.09 1027.86,-430.49 1030.42,-437"/>
</g>
<!-- azoteq_iqs5xx_set_event_mode&#45;&gt;i2c_read_register16 -->
<g id="edge38" class="edge">
<title>azoteq_iqs5xx_set_event_mode&#45;&gt;i2c_read_register16</title>
<path fill="none" stroke="black" d="M597.54,-508.74C608.84,-504.19 619.47,-498.21 628.75,-490.41 666.18,-458.92 628.36,-419.09 664.75,-386.41 674.43,-377.71 686.06,-371.31 698.37,-366.61"/>
<polygon fill="black" stroke="black" points="699.57,-369.9 707.9,-363.35 697.3,-363.28 699.57,-369.9"/>
</g>
<!-- azoteq_iqs5xx_set_event_mode&#45;&gt;azoteq_iqs5xx_end_session -->
<g id="edge40" class="edge">
<title>azoteq_iqs5xx_set_event_mode&#45;&gt;azoteq_iqs5xx_end_session</title>
<path fill="none" stroke="black" d="M569.06,-504.37C589.1,-500.72 609.73,-496.13 628.75,-490.41 674.74,-476.57 724.49,-453.08 758.38,-435.68"/>
<polygon fill="black" stroke="black" points="760.24,-438.66 767.5,-430.95 757.01,-432.45 760.24,-438.66"/>
</g>
<!-- azoteq_iqs5xx_set_reati&#45;&gt;i2c_write_register16 -->
<g id="edge42" class="edge">
<title>azoteq_iqs5xx_set_reati&#45;&gt;i2c_write_register16</title>
<path fill="none" stroke="black" d="M582.34,-462.22C678.35,-460.15 816.44,-454.69 936.42,-440.41 958.3,-437.8 981.88,-433.8 1003.41,-429.66"/>
<polygon fill="black" stroke="black" points="1004.32,-433.05 1013.46,-427.69 1002.98,-426.18 1004.32,-433.05"/>
</g>
<!-- azoteq_iqs5xx_set_reati&#45;&gt;i2c_read_register16 -->
<g id="edge41" class="edge">
<title>azoteq_iqs5xx_set_reati&#45;&gt;i2c_read_register16</title>
<path fill="none" stroke="black" d="M575.55,-457.32C594.24,-452.95 612.73,-446.32 628.75,-436.41 652.03,-422 641.94,-401.56 664.75,-386.41 676.78,-378.42 690.59,-372.47 704.69,-368.04"/>
<polygon fill="black" stroke="black" points="705.85,-371.36 714.48,-365.22 703.91,-364.63 705.85,-371.36"/>
</g>
<!-- azoteq_iqs5xx_set_reati&#45;&gt;azoteq_iqs5xx_end_session -->
<g id="edge43" class="edge">
<title>azoteq_iqs5xx_set_reati&#45;&gt;azoteq_iqs5xx_end_session</title>
<path fill="none" stroke="black" d="M548.16,-450.73C594.2,-443.89 651.27,-435.42 699.39,-428.28"/>
<polygon fill="black" stroke="black" points="700.14,-431.71 709.52,-426.77 699.11,-424.78 700.14,-431.71"/>
</g>
<!-- azoteq_iqs5xx_set_xy_config&#45;&gt;i2c_write_register16 -->
<g id="edge33" class="edge">
<title>azoteq_iqs5xx_set_xy_config&#45;&gt;i2c_write_register16</title>
<path fill="none" stroke="black" d="M586.97,-255.85C684.5,-265.49 822.39,-285.85 936.42,-328.41 976.9,-343.51 1018.79,-370.29 1046.4,-389.76"/>
<polygon fill="black" stroke="black" points="1044.67,-392.83 1054.84,-395.8 1048.74,-387.13 1044.67,-392.83"/>
</g>
<!-- azoteq_iqs5xx_set_xy_config&#45;&gt;i2c_read_register16 -->
<g id="edge32" class="edge">
<title>azoteq_iqs5xx_set_xy_config&#45;&gt;i2c_read_register16</title>
<path fill="none" stroke="black" d="M567.49,-259.5C588.07,-263.26 609.29,-268.12 628.75,-274.41 645.77,-279.91 648.64,-284.62 664.75,-292.41 694.17,-306.63 727.43,-322.18 753.55,-334.27"/>
<polygon fill="black" stroke="black" points="752.29,-337.54 762.83,-338.56 755.22,-331.18 752.29,-337.54"/>
</g>
<!-- azoteq_iqs5xx_set_xy_config&#45;&gt;azoteq_iqs5xx_end_session -->
<g id="edge34" class="edge">
<title>azoteq_iqs5xx_set_xy_config&#45;&gt;azoteq_iqs5xx_end_session</title>
<path fill="none" stroke="black" d="M593.11,-254.22C606.08,-258.97 618.29,-265.51 628.75,-274.41 667.28,-307.2 627.3,-348.38 664.75,-382.41 671.54,-388.58 679.3,-393.59 687.6,-397.67"/>
<polygon fill="black" stroke="black" points="686.23,-400.89 696.79,-401.73 689.06,-394.48 686.23,-400.89"/>
</g>
<!-- azoteq_iqs5xx_set_gesture_config&#45;&gt;i2c_write_register16 -->
<g id="edge36" class="edge">
<title>azoteq_iqs5xx_set_gesture_config&#45;&gt;i2c_write_register16</title>
<path fill="none" stroke="black" d="M626.39,-190.33C721.67,-194.84 841.35,-211.7 936.42,-261.41 992.61,-290.78 1038.39,-351.49 1061.57,-386.64"/>
<polygon fill="black" stroke="black" points="1058.87,-388.91 1067.23,-395.42 1064.75,-385.12 1058.87,-388.91"/>
</g>
<!-- azoteq_iqs5xx_set_gesture_config&#45;&gt;i2c_read_register16 -->
<g id="edge35" class="edge">
<title>azoteq_iqs5xx_set_gesture_config&#45;&gt;i2c_read_register16</title>
<path fill="none" stroke="black" d="M584.06,-205.75C599.46,-209.44 614.72,-214.23 628.75,-220.41 688.38,-246.68 745.17,-298.79 775.9,-330.02"/>
<polygon fill="black" stroke="black" points="773.67,-332.74 783.14,-337.48 778.69,-327.87 773.67,-332.74"/>
</g>
<!-- azoteq_iqs5xx_set_gesture_config&#45;&gt;azoteq_iqs5xx_end_session -->
<g id="edge37" class="edge">
<title>azoteq_iqs5xx_set_gesture_config&#45;&gt;azoteq_iqs5xx_end_session</title>
<path fill="none" stroke="black" d="M603.28,-203.15C612.57,-207.63 621.21,-213.29 628.75,-220.41 682.38,-271.04 612.78,-330.06 664.75,-382.41 670.83,-388.53 677.86,-393.55 685.45,-397.65"/>
<polygon fill="black" stroke="black" points="684.08,-400.87 694.61,-402.05 687.11,-394.56 684.08,-400.87"/>
</g>
<!-- azoteq_iqs5xx_get_cpi -->
<g id="node18" class="node">
<title>azoteq_iqs5xx_get_cpi</title>
<ellipse fill="none" stroke="black" cx="461.71" cy="-301.41" rx="113.98" ry="18"/>
<text text-anchor="middle" x="461.71" y="-297.71" font-family="Times,serif" font-size="14.00">azoteq_iqs5xx_get_cpi</text>
</g>
<!-- azoteq_iqs5xx_get_cpi&#45;&gt;i2c_read_register16 -->
<g id="edge27" class="edge">
<title>azoteq_iqs5xx_get_cpi&#45;&gt;i2c_read_register16</title>
<path fill="none" stroke="black" d="M542.55,-314.2C594.18,-322.48 661.35,-333.25 714.08,-341.7"/>
<polygon fill="black" stroke="black" points="713.65,-345.18 724.08,-343.3 714.76,-338.27 713.65,-345.18"/>
</g>
<!-- azoteq_iqs5xx_set_cpi -->
<g id="node19" class="node">
<title>azoteq_iqs5xx_set_cpi</title>
<ellipse fill="none" stroke="black" cx="800.59" cy="-47.41" rx="112.38" ry="18"/>
<text text-anchor="middle" x="800.59" y="-43.71" font-family="Times,serif" font-size="14.00">azoteq_iqs5xx_set_cpi</text>
</g>
<!-- azoteq_iqs5xx_set_cpi&#45;&gt;i2c_write_register16 -->
<g id="edge28" class="edge">
<title>azoteq_iqs5xx_set_cpi&#45;&gt;i2c_write_register16</title>
<path fill="none" stroke="black" d="M894.81,-57.41C909.9,-62.29 924.48,-69.32 936.42,-79.41 1033.07,-161.05 1065.22,-320.22 1074.59,-384.98"/>
<polygon fill="black" stroke="black" points="1071.17,-385.8 1075.99,-395.23 1078.11,-384.85 1071.17,-385.8"/>
</g>
<!-- azoteq_iqs5xx_end_session&#45;&gt;i2c_write_register16 -->
<g id="edge50" class="edge">
<title>azoteq_iqs5xx_end_session&#45;&gt;i2c_write_register16</title>
<path fill="none" stroke="black" d="M936.56,-413.41C945.04,-413.41 953.53,-413.41 961.91,-413.41"/>
<polygon fill="black" stroke="black" points="962.07,-416.91 972.07,-413.41 962.07,-409.91 962.07,-416.91"/>
</g>
<!-- azoteq_iqs5xx_get_report_rate -->
<g id="node21" class="node">
<title>azoteq_iqs5xx_get_report_rate</title>
<ellipse fill="none" stroke="black" cx="461.71" cy="-409.41" rx="152.97" ry="18"/>
<text text-anchor="middle" x="461.71" y="-405.71" font-family="Times,serif" font-size="14.00">azoteq_iqs5xx_get_report_rate</text>
</g>
<!-- azoteq_iqs5xx_get_report_rate&#45;&gt;i2c_read_register16 -->
<g id="edge46" class="edge">
<title>azoteq_iqs5xx_get_report_rate&#45;&gt;i2c_read_register16</title>
<path fill="none" stroke="black" d="M552.99,-394.94C603.04,-386.91 664.92,-376.99 714.17,-369.1"/>
<polygon fill="black" stroke="black" points="714.84,-372.54 724.16,-367.5 713.74,-365.62 714.84,-372.54"/>
</g>
<!-- azoteq_iqs5xx_get_report_rate&#45;&gt;azoteq_iqs5xx_end_session -->
<g id="edge47" class="edge">
<title>azoteq_iqs5xx_get_report_rate&#45;&gt;azoteq_iqs5xx_end_session</title>
<path fill="none" stroke="black" d="M613.9,-411.2C627.49,-411.36 641.24,-411.53 654.77,-411.69"/>
<polygon fill="black" stroke="black" points="655.03,-415.19 665.07,-411.81 655.11,-408.19 655.03,-415.19"/>
</g>
</g>
</svg>
