<?xml version="1.0" encoding="UTF-8" standalone="no"?>
<!DOCTYPE svg PUBLIC "-//W3C//DTD SVG 1.1//EN"
 "http://www.w3.org/Graphics/SVG/1.1/DTD/svg11.dtd">
<!-- Generated by graphviz version 13.1.0 (20250701.0955)
 -->
<!-- Title: G Pages: 1 -->
<svg width="1007pt" height="867pt"
 viewBox="0.00 0.00 1007.00 867.00" xmlns="http://www.w3.org/2000/svg" xmlns:xlink="http://www.w3.org/1999/xlink">
<g id="graph0" class="graph" transform="scale(1 1) rotate(0) translate(4 863.42)">
<title>G</title>
<polygon fill="white" stroke="none" points="-4,4 -4,-863.42 1002.89,-863.42 1002.89,4 -4,4"/>
<!-- azoteq_iqs5xx_get_report -->
<g id="node1" class="node">
<title>azoteq_iqs5xx_get_report</title>
<ellipse fill="none" stroke="black" cx="106.63" cy="-47.42" rx="106.63" ry="18"/>
<text xml:space="preserve" text-anchor="middle" x="106.63" y="-42.37" font-family="Times,serif" font-size="14.00">azoteq_iqs5xx_get_report</text>
</g>
<!-- azoteq_iqs5xx_get_base_data -->
<g id="node2" class="node">
<title>azoteq_iqs5xx_get_base_data</title>
<ellipse fill="none" stroke="black" cx="387.61" cy="-355.42" rx="120.96" ry="18"/>
<text xml:space="preserve" text-anchor="middle" x="387.61" y="-350.37" font-family="Times,serif" font-size="14.00">azoteq_iqs5xx_get_base_data</text>
</g>
<!-- azoteq_iqs5xx_get_report&#45;&gt;azoteq_iqs5xx_get_base_data -->
<g id="edge1" class="edge">
<title>azoteq_iqs5xx_get_report&#45;&gt;azoteq_iqs5xx_get_base_data</title>
<path fill="none" stroke="black" d="M111.07,-65.74C121.63,-116.47 158.51,-259.57 249.25,-328.42 256.48,-333.9 264.52,-338.36 272.98,-341.97"/>
<polygon fill="black" stroke="black" points="271.48,-345.15 282.07,-345.44 273.97,-338.61 271.48,-345.15"/>
</g>
<!-- pointing_device_handle_buttons -->
<g id="node3" class="node">
<title>pointing_device_handle_buttons</title>
<ellipse fill="none" stroke="black" cx="387.61" cy="-47.42" rx="131.19" ry="18"/>
<text xml:space="preserve" text-anchor="middle" x="387.61" y="-42.37" font-family="Times,serif" font-size="14.00">pointing_device_handle_buttons</text>
</g>
<!-- azoteq_iqs5xx_get_report&#45;&gt;pointing_device_handle_buttons -->
<g id="edge2" class="edge">
<title>azoteq_iqs5xx_get_report&#45;&gt;pointing_device_handle_buttons</title>
<path fill="none" stroke="black" d="M116.91,-29.01C156.79,7.11 314.02,9.3 368.17,-22.42"/>
<polygon fill="black" stroke="black" points="365.9,-25.1 376.07,-28.09 369.99,-19.42 365.9,-25.1"/>
</g>
<!-- azoteq_iqs5xx_get_report&#45;&gt;pointing_device_handle_buttons -->
<g id="edge3" class="edge">
<title>azoteq_iqs5xx_get_report&#45;&gt;pointing_device_handle_buttons</title>
<path fill="none" stroke="black" d="M126.8,-29.26C174.58,-9.79 299.22,-8.55 356.74,-25.56"/>
<polygon fill="black" stroke="black" points="355.28,-28.76 365.87,-28.71 357.56,-22.14 355.28,-28.76"/>
</g>
<!-- azoteq_iqs5xx_get_report&#45;&gt;pointing_device_handle_buttons -->
<g id="edge4" class="edge">
<title>azoteq_iqs5xx_get_report&#45;&gt;pointing_device_handle_buttons</title>
<path fill="none" stroke="black" d="M158.8,-31.33C203.89,-26.35 269.91,-25.84 319.28,-29.8"/>
<polygon fill="black" stroke="black" points="318.72,-33.26 328.99,-30.67 319.34,-26.29 318.72,-33.26"/>
</g>
<!-- azoteq_iqs5xx_get_report&#45;&gt;pointing_device_handle_buttons -->
<g id="edge5" class="edge">
<title>azoteq_iqs5xx_get_report&#45;&gt;pointing_device_handle_buttons</title>
<path fill="none" stroke="black" d="M206.77,-40.93C222.02,-40.73 237.97,-40.64 253.81,-40.67"/>
<polygon fill="black" stroke="black" points="253.79,-44.17 263.8,-40.71 253.81,-37.17 253.79,-44.17"/>
</g>
<!-- azoteq_iqs5xx_get_report&#45;&gt;pointing_device_handle_buttons -->
<g id="edge6" class="edge">
<title>azoteq_iqs5xx_get_report&#45;&gt;pointing_device_handle_buttons</title>
<path fill="none" stroke="black" d="M206.77,-53.91C222.02,-54.11 237.97,-54.19 253.81,-54.16"/>
<polygon fill="black" stroke="black" points="253.81,-57.66 263.8,-54.12 253.79,-50.66 253.81,-57.66"/>
</g>
<!-- azoteq_iqs5xx_get_report&#45;&gt;pointing_device_handle_buttons -->
<g id="edge7" class="edge">
<title>azoteq_iqs5xx_get_report&#45;&gt;pointing_device_handle_buttons</title>
<path fill="none" stroke="black" d="M158.8,-63.51C203.89,-68.49 269.91,-69 319.28,-65.04"/>
<polygon fill="black" stroke="black" points="319.34,-68.54 328.99,-64.17 318.72,-61.57 319.34,-68.54"/>
</g>
<!-- azoteq_iqs5xx_get_report&#45;&gt;pointing_device_handle_buttons -->
<g id="edge8" class="edge">
<title>azoteq_iqs5xx_get_report&#45;&gt;pointing_device_handle_buttons</title>
<path fill="none" stroke="black" d="M126.8,-65.58C174.58,-85.05 299.22,-86.28 356.74,-69.28"/>
<polygon fill="black" stroke="black" points="357.56,-72.69 365.87,-66.12 355.28,-66.08 357.56,-72.69"/>
</g>
<!-- azoteq_iqs5xx_get_report&#45;&gt;pointing_device_handle_buttons -->
<g id="edge9" class="edge">
<title>azoteq_iqs5xx_get_report&#45;&gt;pointing_device_handle_buttons</title>
<path fill="none" stroke="black" d="M116.91,-65.83C156.79,-101.94 314.02,-104.14 368.17,-72.42"/>
<polygon fill="black" stroke="black" points="369.99,-75.42 376.07,-66.74 365.9,-69.73 369.99,-75.42"/>
</g>
<!-- i2c_read_register16 -->
<g id="node17" class="node">
<title>i2c_read_register16</title>
<ellipse fill="none" stroke="black" cx="675.25" cy="-355.42" rx="84.11" ry="18"/>
<text xml:space="preserve" text-anchor="middle" x="675.25" y="-350.37" font-family="Times,serif" font-size="14.00">i2c_read_register16</text>
</g>
<!-- azoteq_iqs5xx_get_base_data&#45;&gt;i2c_read_register16 -->
<g id="edge48" class="edge">
<title>azoteq_iqs5xx_get_base_data&#45;&gt;i2c_read_register16</title>
<path fill="none" stroke="black" d="M508.92,-355.42C532.53,-355.42 556.98,-355.42 579.6,-355.42"/>
<polygon fill="black" stroke="black" points="579.39,-358.92 589.39,-355.42 579.39,-351.92 579.39,-358.92"/>
</g>
<!-- azoteq_iqs5xx_end_session -->
<g id="node20" class="node">
<title>azoteq_iqs5xx_end_session</title>
<ellipse fill="none" stroke="black" cx="675.25" cy="-413.42" rx="113.28" ry="18"/>
<text xml:space="preserve" text-anchor="middle" x="675.25" y="-408.37" font-family="Times,serif" font-size="14.00">azoteq_iqs5xx_end_session</text>
</g>
<!-- azoteq_iqs5xx_get_base_data&#45;&gt;azoteq_iqs5xx_end_session -->
<g id="edge49" class="edge">
<title>azoteq_iqs5xx_get_base_data&#45;&gt;azoteq_iqs5xx_end_session</title>
<path fill="none" stroke="black" d="M463.14,-369.9C483.52,-373.9 505.61,-378.29 525.97,-382.42 548.24,-386.93 572.37,-391.93 594.56,-396.57"/>
<polygon fill="black" stroke="black" points="593.64,-399.96 604.15,-398.58 595.08,-393.11 593.64,-399.96"/>
</g>
<!-- azoteq_iqs5xx_init -->
<g id="node4" class="node">
<title>azoteq_iqs5xx_init</title>
<ellipse fill="none" stroke="black" cx="106.63" cy="-652.42" rx="81.04" ry="18"/>
<text xml:space="preserve" text-anchor="middle" x="106.63" y="-647.37" font-family="Times,serif" font-size="14.00">azoteq_iqs5xx_init</text>
</g>
<!-- i2c_init -->
<g id="node5" class="node">
<title>i2c_init</title>
<ellipse fill="none" stroke="black" cx="387.61" cy="-841.42" rx="39.07" ry="18"/>
<text xml:space="preserve" text-anchor="middle" x="387.61" y="-836.37" font-family="Times,serif" font-size="14.00">i2c_init</text>
</g>
<!-- azoteq_iqs5xx_init&#45;&gt;i2c_init -->
<g id="edge10" class="edge">
<title>azoteq_iqs5xx_init&#45;&gt;i2c_init</title>
<path fill="none" stroke="black" d="M117.79,-670.48C138.02,-704.61 186.8,-778.39 249.25,-814.42 275.78,-829.72 309.47,-836.5 336.84,-839.44"/>
<polygon fill="black" stroke="black" points="336.36,-842.91 346.64,-840.34 337.01,-835.94 336.36,-842.91"/>
</g>
<!-- i2c_ping_address -->
<g id="node6" class="node">
<title>i2c_ping_address</title>
<ellipse fill="none" stroke="black" cx="387.61" cy="-787.42" rx="75.41" ry="18"/>
<text xml:space="preserve" text-anchor="middle" x="387.61" y="-782.37" font-family="Times,serif" font-size="14.00">i2c_ping_address</text>
</g>
<!-- azoteq_iqs5xx_init&#45;&gt;i2c_ping_address -->
<g id="edge11" class="edge">
<title>azoteq_iqs5xx_init&#45;&gt;i2c_ping_address</title>
<path fill="none" stroke="black" d="M131.92,-669.96C158.44,-692.61 203.29,-730.74 249.25,-751.42 272.02,-761.66 298.64,-768.03 322.34,-772.57"/>
<polygon fill="black" stroke="black" points="321.4,-775.96 331.87,-774.32 322.67,-769.07 321.4,-775.96"/>
</g>
<!-- azoteq_iqs5xx_init&#45;&gt;i2c_ping_address -->
<g id="edge14" class="edge">
<title>azoteq_iqs5xx_init&#45;&gt;i2c_ping_address</title>
<path fill="none" stroke="black" d="M119.96,-670.35C143.07,-696.99 195.39,-745.19 249.25,-769.42 265.4,-776.68 283.49,-782 301.1,-785.68"/>
<polygon fill="black" stroke="black" points="300.02,-789.04 310.5,-787.48 301.34,-782.16 300.02,-789.04"/>
</g>
<!-- azoteq_iqs5xx_reset_suspend -->
<g id="node7" class="node">
<title>azoteq_iqs5xx_reset_suspend</title>
<ellipse fill="none" stroke="black" cx="387.61" cy="-571.42" rx="120.45" ry="18"/>
<text xml:space="preserve" text-anchor="middle" x="387.61" y="-566.37" font-family="Times,serif" font-size="14.00">azoteq_iqs5xx_reset_suspend</text>
</g>
<!-- azoteq_iqs5xx_init&#45;&gt;azoteq_iqs5xx_reset_suspend -->
<g id="edge12" class="edge">
<title>azoteq_iqs5xx_init&#45;&gt;azoteq_iqs5xx_reset_suspend</title>
<path fill="none" stroke="black" d="M144.91,-636.2C173.13,-624.42 213.08,-608.79 249.25,-598.42 263.82,-594.24 279.45,-590.5 294.74,-587.22"/>
<polygon fill="black" stroke="black" points="295.25,-590.69 304.32,-585.23 293.82,-583.84 295.25,-590.69"/>
</g>
<!-- wait_ms -->
<g id="node8" class="node">
<title>wait_ms</title>
<ellipse fill="none" stroke="black" cx="387.61" cy="-679.42" rx="42.65" ry="18"/>
<text xml:space="preserve" text-anchor="middle" x="387.61" y="-674.37" font-family="Times,serif" font-size="14.00">wait_ms</text>
</g>
<!-- azoteq_iqs5xx_init&#45;&gt;wait_ms -->
<g id="edge13" class="edge">
<title>azoteq_iqs5xx_init&#45;&gt;wait_ms</title>
<path fill="none" stroke="black" d="M187.57,-653.98C236.14,-657.68 296.57,-663.83 338.02,-669.45"/>
<polygon fill="black" stroke="black" points="337.3,-672.88 347.68,-670.81 338.27,-665.95 337.3,-672.88"/>
</g>
<!-- azoteq_iqs5xx_init&#45;&gt;wait_ms -->
<g id="edge25" class="edge">
<title>azoteq_iqs5xx_init&#45;&gt;wait_ms</title>
<path fill="none" stroke="black" d="M169.54,-664.13C218.67,-670.35 286.63,-676.83 333.35,-679.7"/>
<polygon fill="black" stroke="black" points="333.06,-683.19 343.24,-680.27 333.46,-676.2 333.06,-683.19"/>
</g>
<!-- azoteq_iqs5xx_get_product -->
<g id="node9" class="node">
<title>azoteq_iqs5xx_get_product</title>
<ellipse fill="none" stroke="black" cx="387.61" cy="-139.42" rx="112.77" ry="18"/>
<text xml:space="preserve" text-anchor="middle" x="387.61" y="-134.37" font-family="Times,serif" font-size="14.00">azoteq_iqs5xx_get_product</text>
</g>
<!-- azoteq_iqs5xx_init&#45;&gt;azoteq_iqs5xx_get_product -->
<g id="edge15" class="edge">
<title>azoteq_iqs5xx_init&#45;&gt;azoteq_iqs5xx_get_product</title>
<path fill="none" stroke="black" d="M110.39,-634.11C122.9,-553.68 176.77,-232.69 249.25,-166.42 256.28,-159.99 264.37,-154.9 273.04,-150.89"/>
<polygon fill="black" stroke="black" points="274.1,-154.24 282.05,-147.23 271.46,-147.75 274.1,-154.24"/>
</g>
<!-- azoteq_iqs5xx_setup_resolution -->
<g id="node10" class="node">
<title>azoteq_iqs5xx_setup_resolution</title>
<ellipse fill="none" stroke="black" cx="387.61" cy="-625.42" rx="129.66" ry="18"/>
<text xml:space="preserve" text-anchor="middle" x="387.61" y="-620.37" font-family="Times,serif" font-size="14.00">azoteq_iqs5xx_setup_resolution</text>
</g>
<!-- azoteq_iqs5xx_init&#45;&gt;azoteq_iqs5xx_setup_resolution -->
<g id="edge16" class="edge">
<title>azoteq_iqs5xx_init&#45;&gt;azoteq_iqs5xx_setup_resolution</title>
<path fill="none" stroke="black" d="M181.66,-645.25C208.35,-642.67 239.19,-639.69 268.7,-636.83"/>
<polygon fill="black" stroke="black" points="268.81,-640.34 278.43,-635.89 268.14,-633.37 268.81,-640.34"/>
</g>
<!-- azoteq_iqs5xx_set_report_rate -->
<g id="node11" class="node">
<title>azoteq_iqs5xx_set_report_rate</title>
<ellipse fill="none" stroke="black" cx="387.61" cy="-733.42" rx="124.03" ry="18"/>
<text xml:space="preserve" text-anchor="middle" x="387.61" y="-728.37" font-family="Times,serif" font-size="14.00">azoteq_iqs5xx_set_report_rate</text>
</g>
<!-- azoteq_iqs5xx_init&#45;&gt;azoteq_iqs5xx_set_report_rate -->
<g id="edge17" class="edge">
<title>azoteq_iqs5xx_init&#45;&gt;azoteq_iqs5xx_set_report_rate</title>
<path fill="none" stroke="black" d="M172.77,-663.01C196.54,-671.24 223.83,-681.13 249.25,-688.42 281.7,-697.72 319.36,-704.87 347.03,-712.35"/>
<polygon fill="black" stroke="black" points="345.83,-715.64 356.41,-715.04 347.77,-708.92 345.83,-715.64"/>
</g>
<!-- azoteq_iqs5xx_init&#45;&gt;azoteq_iqs5xx_set_report_rate -->
<g id="edge18" class="edge">
<title>azoteq_iqs5xx_init&#45;&gt;azoteq_iqs5xx_set_report_rate</title>
<path fill="none" stroke="black" d="M144.91,-668.63C173.13,-680.41 213.08,-696.05 249.25,-706.42 263.54,-710.51 278.84,-714.19 293.85,-717.42"/>
<polygon fill="black" stroke="black" points="292.73,-720.76 303.24,-719.38 294.16,-713.91 292.73,-720.76"/>
</g>
<!-- azoteq_iqs5xx_init&#45;&gt;azoteq_iqs5xx_set_report_rate -->
<g id="edge19" class="edge">
<title>azoteq_iqs5xx_init&#45;&gt;azoteq_iqs5xx_set_report_rate</title>
<path fill="none" stroke="black" d="M123.05,-670.39C148.76,-688.54 202.2,-710.93 249.25,-724.42 251.4,-725.03 253.57,-725.64 255.76,-726.23"/>
<polygon fill="black" stroke="black" points="254.8,-729.6 265.36,-728.74 256.57,-722.83 254.8,-729.6"/>
</g>
<!-- i2c_write_register16 -->
<g id="node12" class="node">
<title>i2c_write_register16</title>
<ellipse fill="none" stroke="black" cx="911.71" cy="-413.42" rx="87.18" ry="18"/>
<text xml:space="preserve" text-anchor="middle" x="911.71" y="-408.37" font-family="Times,serif" font-size="14.00">i2c_write_register16</text>
</g>
<!-- azoteq_iqs5xx_init&#45;&gt;i2c_write_register16 -->
<g id="edge20" class="edge">
<title>azoteq_iqs5xx_init&#45;&gt;i2c_write_register16</title>
<path fill="none" stroke="black" d="M109.49,-634.09C118.75,-547.32 162.73,-179.17 249.25,-112.42 345.23,-38.37 694.45,-117.98 788.53,-194.42 851.14,-245.29 887.13,-337.25 902.23,-384.17"/>
<polygon fill="black" stroke="black" points="898.86,-385.12 905.17,-393.63 905.54,-383.04 898.86,-385.12"/>
</g>
<!-- azoteq_iqs5xx_set_event_mode -->
<g id="node13" class="node">
<title>azoteq_iqs5xx_set_event_mode</title>
<ellipse fill="none" stroke="black" cx="387.61" cy="-517.42" rx="129.15" ry="18"/>
<text xml:space="preserve" text-anchor="middle" x="387.61" y="-512.37" font-family="Times,serif" font-size="14.00">azoteq_iqs5xx_set_event_mode</text>
</g>
<!-- azoteq_iqs5xx_init&#45;&gt;azoteq_iqs5xx_set_event_mode -->
<g id="edge21" class="edge">
<title>azoteq_iqs5xx_init&#45;&gt;azoteq_iqs5xx_set_event_mode</title>
<path fill="none" stroke="black" d="M125.08,-634.74C150.2,-610.39 199.06,-567 249.25,-544.42 259.39,-539.86 270.3,-536.06 281.36,-532.91"/>
<polygon fill="black" stroke="black" points="282.24,-536.3 291,-530.35 280.44,-529.53 282.24,-536.3"/>
</g>
<!-- azoteq_iqs5xx_set_reati -->
<g id="node14" class="node">
<title>azoteq_iqs5xx_set_reati</title>
<ellipse fill="none" stroke="black" cx="387.61" cy="-463.42" rx="99.97" ry="18"/>
<text xml:space="preserve" text-anchor="middle" x="387.61" y="-458.37" font-family="Times,serif" font-size="14.00">azoteq_iqs5xx_set_reati</text>
</g>
<!-- azoteq_iqs5xx_init&#45;&gt;azoteq_iqs5xx_set_reati -->
<g id="edge22" class="edge">
<title>azoteq_iqs5xx_init&#45;&gt;azoteq_iqs5xx_set_reati</title>
<path fill="none" stroke="black" d="M117.79,-634.36C138.02,-600.23 186.8,-526.45 249.25,-490.42 261.05,-483.61 274.26,-478.5 287.7,-474.65"/>
<polygon fill="black" stroke="black" points="288.25,-478.12 297.04,-472.21 286.48,-471.35 288.25,-478.12"/>
</g>
<!-- azoteq_iqs5xx_set_xy_config -->
<g id="node15" class="node">
<title>azoteq_iqs5xx_set_xy_config</title>
<ellipse fill="none" stroke="black" cx="387.61" cy="-247.42" rx="120.96" ry="18"/>
<text xml:space="preserve" text-anchor="middle" x="387.61" y="-242.37" font-family="Times,serif" font-size="14.00">azoteq_iqs5xx_set_xy_config</text>
</g>
<!-- azoteq_iqs5xx_init&#45;&gt;azoteq_iqs5xx_set_xy_config -->
<g id="edge23" class="edge">
<title>azoteq_iqs5xx_init&#45;&gt;azoteq_iqs5xx_set_xy_config</title>
<path fill="none" stroke="black" d="M108.52,-633.93C112.55,-572.24 134.32,-371.85 249.25,-274.42 255.76,-268.9 263.07,-264.39 270.84,-260.71"/>
<polygon fill="black" stroke="black" points="272.01,-264.01 279.88,-256.92 269.31,-257.55 272.01,-264.01"/>
</g>
<!-- azoteq_iqs5xx_set_gesture_config -->
<g id="node16" class="node">
<title>azoteq_iqs5xx_set_gesture_config</title>
<ellipse fill="none" stroke="black" cx="387.61" cy="-193.42" rx="138.36" ry="18"/>
<text xml:space="preserve" text-anchor="middle" x="387.61" y="-188.37" font-family="Times,serif" font-size="14.00">azoteq_iqs5xx_set_gesture_config</text>
</g>
<!-- azoteq_iqs5xx_init&#45;&gt;azoteq_iqs5xx_set_gesture_config -->
<g id="edge24" class="edge">
<title>azoteq_iqs5xx_init&#45;&gt;azoteq_iqs5xx_set_gesture_config</title>
<path fill="none" stroke="black" d="M107.54,-634.22C108.29,-567.52 120.36,-334.4 249.25,-220.42 254.21,-216.03 259.67,-212.28 265.46,-209.07"/>
<polygon fill="black" stroke="black" points="266.69,-212.36 274.14,-204.82 263.62,-206.07 266.69,-212.36"/>
</g>
<!-- azoteq_iqs5xx_reset_suspend&#45;&gt;i2c_write_register16 -->
<g id="edge30" class="edge">
<title>azoteq_iqs5xx_reset_suspend&#45;&gt;i2c_write_register16</title>
<path fill="none" stroke="black" d="M497.33,-563.66C579.8,-554.87 694.59,-536.32 788.53,-497.42 823.38,-482.98 858.37,-457.55 881.92,-438.44"/>
<polygon fill="black" stroke="black" points="884.02,-441.24 889.5,-432.17 879.56,-435.85 884.02,-441.24"/>
</g>
<!-- azoteq_iqs5xx_reset_suspend&#45;&gt;i2c_read_register16 -->
<g id="edge29" class="edge">
<title>azoteq_iqs5xx_reset_suspend&#45;&gt;i2c_read_register16</title>
<path fill="none" stroke="black" d="M496.04,-563.27C507.12,-558.82 517.43,-552.71 525.97,-544.42 577.65,-494.26 512.21,-438.49 561.97,-386.42 569.67,-378.36 579.26,-372.33 589.57,-367.84"/>
<polygon fill="black" stroke="black" points="590.57,-371.21 598.66,-364.37 588.07,-364.66 590.57,-371.21"/>
</g>
<!-- azoteq_iqs5xx_reset_suspend&#45;&gt;azoteq_iqs5xx_end_session -->
<g id="edge31" class="edge">
<title>azoteq_iqs5xx_reset_suspend&#45;&gt;azoteq_iqs5xx_end_session</title>
<path fill="none" stroke="black" d="M482.07,-559.99C497.2,-556.2 512.35,-551.15 525.97,-544.42 577.83,-518.8 625.62,-470.21 652.25,-439.95"/>
<polygon fill="black" stroke="black" points="654.62,-442.56 658.52,-432.71 649.33,-437.98 654.62,-442.56"/>
</g>
<!-- azoteq_iqs5xx_get_product&#45;&gt;i2c_read_register16 -->
<g id="edge26" class="edge">
<title>azoteq_iqs5xx_get_product&#45;&gt;i2c_read_register16</title>
<path fill="none" stroke="black" d="M483.93,-148.97C498.68,-152.99 513.23,-158.61 525.97,-166.42 590.58,-206.01 638.17,-284.6 660.35,-326.89"/>
<polygon fill="black" stroke="black" points="657.2,-328.41 664.87,-335.72 663.43,-325.22 657.2,-328.41"/>
</g>
<!-- azoteq_iqs5xx_set_report_rate&#45;&gt;i2c_write_register16 -->
<g id="edge44" class="edge">
<title>azoteq_iqs5xx_set_report_rate&#45;&gt;i2c_write_register16</title>
<path fill="none" stroke="black" d="M478.3,-720.77C494.47,-717.09 510.96,-712.4 525.97,-706.42 654.24,-655.34 681.55,-627.69 788.53,-540.42 826.66,-509.32 865.1,-467.17 888.41,-440.13"/>
<polygon fill="black" stroke="black" points="890.9,-442.61 894.73,-432.73 885.58,-438.06 890.9,-442.61"/>
</g>
<!-- azoteq_iqs5xx_set_report_rate&#45;&gt;azoteq_iqs5xx_end_session -->
<g id="edge45" class="edge">
<title>azoteq_iqs5xx_set_report_rate&#45;&gt;azoteq_iqs5xx_end_session</title>
<path fill="none" stroke="black" d="M492.78,-723.6C504.69,-719.47 516.09,-713.9 525.97,-706.42 549.21,-688.82 629.99,-512.27 661.51,-442.03"/>
<polygon fill="black" stroke="black" points="664.62,-443.64 665.51,-433.09 658.23,-440.78 664.62,-443.64"/>
</g>
<!-- azoteq_iqs5xx_set_event_mode&#45;&gt;i2c_write_register16 -->
<g id="edge39" class="edge">
<title>azoteq_iqs5xx_set_event_mode&#45;&gt;i2c_write_register16</title>
<path fill="none" stroke="black" d="M504.78,-509.58C585.43,-502.24 694.79,-488.49 788.53,-463.42 814.91,-456.36 843.19,-445.05 865.9,-434.96"/>
<polygon fill="black" stroke="black" points="867.19,-438.22 874.86,-430.91 864.31,-431.84 867.19,-438.22"/>
</g>
<!-- azoteq_iqs5xx_set_event_mode&#45;&gt;i2c_read_register16 -->
<g id="edge38" class="edge">
<title>azoteq_iqs5xx_set_event_mode&#45;&gt;i2c_read_register16</title>
<path fill="none" stroke="black" d="M496.89,-507.67C507.48,-503.45 517.44,-497.83 525.97,-490.42 562.88,-458.32 526.3,-419.88 561.97,-386.42 570.35,-378.55 580.55,-372.65 591.34,-368.23"/>
<polygon fill="black" stroke="black" points="592.19,-371.65 600.4,-364.95 589.81,-365.07 592.19,-371.65"/>
</g>
<!-- azoteq_iqs5xx_set_event_mode&#45;&gt;azoteq_iqs5xx_end_session -->
<g id="edge40" class="edge">
<title>azoteq_iqs5xx_set_event_mode&#45;&gt;azoteq_iqs5xx_end_session</title>
<path fill="none" stroke="black" d="M476.44,-504.03C493.12,-500.4 510.26,-495.92 525.97,-490.42 565.28,-476.67 607.14,-454.12 636.32,-436.97"/>
<polygon fill="black" stroke="black" points="637.99,-440.05 644.79,-431.93 634.4,-434.04 637.99,-440.05"/>
</g>
<!-- azoteq_iqs5xx_set_reati&#45;&gt;i2c_write_register16 -->
<g id="edge42" class="edge">
<title>azoteq_iqs5xx_set_reati&#45;&gt;i2c_write_register16</title>
<path fill="none" stroke="black" d="M487.65,-462.12C568.84,-460.01 686.58,-454.52 788.53,-440.42 806.89,-437.88 826.57,-434.03 844.67,-430.04"/>
<polygon fill="black" stroke="black" points="845.24,-433.49 854.22,-427.87 843.7,-426.67 845.24,-433.49"/>
</g>
<!-- azoteq_iqs5xx_set_reati&#45;&gt;i2c_read_register16 -->
<g id="edge41" class="edge">
<title>azoteq_iqs5xx_set_reati&#45;&gt;i2c_read_register16</title>
<path fill="none" stroke="black" d="M478.82,-455.74C495.37,-451.61 511.86,-445.47 525.97,-436.42 549.02,-421.63 539.5,-402.06 561.97,-386.42 572.07,-379.39 583.72,-373.95 595.6,-369.74"/>
<polygon fill="black" stroke="black" points="596.66,-373.07 605.11,-366.67 594.51,-366.41 596.66,-373.07"/>
</g>
<!-- azoteq_iqs5xx_set_reati&#45;&gt;azoteq_iqs5xx_end_session -->
<g id="edge43" class="edge">
<title>azoteq_iqs5xx_set_reati&#45;&gt;azoteq_iqs5xx_end_session</title>
<path fill="none" stroke="black" d="M460.69,-450.8C498.84,-444.12 545.99,-435.87 586.27,-428.82"/>
<polygon fill="black" stroke="black" points="586.7,-432.3 595.95,-427.12 585.5,-425.4 586.7,-432.3"/>
</g>
<!-- azoteq_iqs5xx_set_xy_config&#45;&gt;i2c_write_register16 -->
<g id="edge33" class="edge">
<title>azoteq_iqs5xx_set_xy_config&#45;&gt;i2c_write_register16</title>
<path fill="none" stroke="black" d="M492.33,-256.63C575.18,-266.74 692.83,-287.35 788.53,-328.42 823.33,-343.35 858.33,-369.04 881.89,-388.28"/>
<polygon fill="black" stroke="black" points="879.55,-390.89 889.48,-394.59 884.03,-385.51 879.55,-390.89"/>
</g>
<!-- azoteq_iqs5xx_set_xy_config&#45;&gt;i2c_read_register16 -->
<g id="edge32" class="edge">
<title>azoteq_iqs5xx_set_xy_config&#45;&gt;i2c_read_register16</title>
<path fill="none" stroke="black" d="M475.08,-260.22C492.2,-263.93 509.86,-268.59 525.97,-274.42 537.2,-278.48 594.13,-310.14 634.08,-332.65"/>
<polygon fill="black" stroke="black" points="632.34,-335.69 642.77,-337.56 635.78,-329.59 632.34,-335.69"/>
</g>
<!-- azoteq_iqs5xx_set_xy_config&#45;&gt;azoteq_iqs5xx_end_session -->
<g id="edge34" class="edge">
<title>azoteq_iqs5xx_set_xy_config&#45;&gt;azoteq_iqs5xx_end_session</title>
<path fill="none" stroke="black" d="M494.58,-256.14C506.05,-260.47 516.85,-266.39 525.97,-274.42 563.96,-307.84 525.27,-347.59 561.97,-382.42 567.82,-387.97 574.57,-392.54 581.8,-396.31"/>
<polygon fill="black" stroke="black" points="580,-399.33 590.54,-400.33 582.92,-392.97 580,-399.33"/>
</g>
<!-- azoteq_iqs5xx_set_gesture_config&#45;&gt;i2c_write_register16 -->
<g id="edge36" class="edge">
<title>azoteq_iqs5xx_set_gesture_config&#45;&gt;i2c_write_register16</title>
<path fill="none" stroke="black" d="M525.97,-193.88C607.2,-199.68 709.33,-216.98 788.53,-263.42 838.42,-292.67 876.47,-350.43 896.04,-385.12"/>
<polygon fill="black" stroke="black" points="892.9,-386.68 900.78,-393.76 899.04,-383.31 892.9,-386.68"/>
</g>
<!-- azoteq_iqs5xx_set_gesture_config&#45;&gt;i2c_read_register16 -->
<g id="edge35" class="edge">
<title>azoteq_iqs5xx_set_gesture_config&#45;&gt;i2c_read_register16</title>
<path fill="none" stroke="black" d="M487.96,-206.2C501.12,-209.82 514.14,-214.46 525.97,-220.42 578.9,-247.06 626.99,-297.95 653.28,-329.07"/>
<polygon fill="black" stroke="black" points="650.37,-331.04 659.45,-336.5 655.76,-326.57 650.37,-331.04"/>
</g>
<!-- azoteq_iqs5xx_set_gesture_config&#45;&gt;azoteq_iqs5xx_end_session -->
<g id="edge37" class="edge">
<title>azoteq_iqs5xx_set_gesture_config&#45;&gt;azoteq_iqs5xx_end_session</title>
<path fill="none" stroke="black" d="M501.44,-203.84C510.47,-208.04 518.84,-213.46 525.97,-220.42 578.76,-271.93 511.16,-328.96 561.97,-382.42 567.21,-387.93 573.34,-392.5 579.98,-396.27"/>
<polygon fill="black" stroke="black" points="578.15,-399.27 588.67,-400.58 581.26,-393 578.15,-399.27"/>
</g>
<!-- azoteq_iqs5xx_get_cpi -->
<g id="node18" class="node">
<title>azoteq_iqs5xx_get_cpi</title>
<ellipse fill="none" stroke="black" cx="387.61" cy="-301.42" rx="95.88" ry="18"/>
<text xml:space="preserve" text-anchor="middle" x="387.61" y="-296.37" font-family="Times,serif" font-size="14.00">azoteq_iqs5xx_get_cpi</text>
</g>
<!-- azoteq_iqs5xx_get_cpi&#45;&gt;i2c_read_register16 -->
<g id="edge27" class="edge">
<title>azoteq_iqs5xx_get_cpi&#45;&gt;i2c_read_register16</title>
<path fill="none" stroke="black" d="M456.67,-314.28C499.78,-322.43 555.55,-332.98 599.83,-341.35"/>
<polygon fill="black" stroke="black" points="599.15,-344.78 609.63,-343.2 600.45,-337.9 599.15,-344.78"/>
</g>
<!-- azoteq_iqs5xx_set_cpi -->
<g id="node19" class="node">
<title>azoteq_iqs5xx_set_cpi</title>
<ellipse fill="none" stroke="black" cx="675.25" cy="-47.42" rx="94.86" ry="18"/>
<text xml:space="preserve" text-anchor="middle" x="675.25" y="-42.37" font-family="Times,serif" font-size="14.00">azoteq_iqs5xx_set_cpi</text>
</g>
<!-- azoteq_iqs5xx_set_cpi&#45;&gt;i2c_write_register16 -->
<g id="edge28" class="edge">
<title>azoteq_iqs5xx_set_cpi&#45;&gt;i2c_write_register16</title>
<path fill="none" stroke="black" d="M751.77,-58.35C765.22,-63.09 778.21,-69.83 788.53,-79.42 878.6,-163.14 902.48,-318.75 908.64,-383.72"/>
<polygon fill="black" stroke="black" points="905.14,-383.94 909.49,-393.6 912.12,-383.34 905.14,-383.94"/>
</g>
<!-- azoteq_iqs5xx_end_session&#45;&gt;i2c_write_register16 -->
<g id="edge50" class="edge">
<title>azoteq_iqs5xx_end_session&#45;&gt;i2c_write_register16</title>
<path fill="none" stroke="black" d="M789.02,-413.42C796.98,-413.42 804.97,-413.42 812.83,-413.42"/>
<polygon fill="black" stroke="black" points="812.75,-416.92 822.75,-413.42 812.75,-409.92 812.75,-416.92"/>
</g>
<!-- azoteq_iqs5xx_get_report_rate -->
<g id="node21" class="node">
<title>azoteq_iqs5xx_get_report_rate</title>
<ellipse fill="none" stroke="black" cx="387.61" cy="-409.42" rx="125.05" ry="18"/>
<text xml:space="preserve" text-anchor="middle" x="387.61" y="-404.37" font-family="Times,serif" font-size="14.00">azoteq_iqs5xx_get_report_rate</text>
</g>
<!-- azoteq_iqs5xx_get_report_rate&#45;&gt;i2c_read_register16 -->
<g id="edge46" class="edge">
<title>azoteq_iqs5xx_get_report_rate&#45;&gt;i2c_read_register16</title>
<path fill="none" stroke="black" d="M465.16,-394.95C506.94,-387.05 558.44,-377.31 599.87,-369.48"/>
<polygon fill="black" stroke="black" points="600.34,-372.95 609.52,-367.66 599.04,-366.07 600.34,-372.95"/>
</g>
<!-- azoteq_iqs5xx_get_report_rate&#45;&gt;azoteq_iqs5xx_end_session -->
<g id="edge47" class="edge">
<title>azoteq_iqs5xx_get_report_rate&#45;&gt;azoteq_iqs5xx_end_session</title>
<path fill="none" stroke="black" d="M512.24,-411.15C525.06,-411.33 538.1,-411.51 550.93,-411.69"/>
<polygon fill="black" stroke="black" points="550.57,-415.19 560.62,-411.83 550.67,-408.19 550.57,-415.19"/>
</g>
</g>
</svg>
