<?xml version="1.0" encoding="UTF-8" standalone="no"?>
<!DOCTYPE svg PUBLIC "-//W3C//DTD SVG 1.1//EN"
 "http://www.w3.org/Graphics/SVG/1.1/DTD/svg11.dtd">
<!-- Generated by graphviz version 13.1.0 (20250701.0955)
 -->
<!-- Title: G Pages: 1 -->
<svg width="1318pt" height="1162pt"
 viewBox="0.00 0.00 1318.00 1162.00" xmlns="http://www.w3.org/2000/svg" xmlns:xlink="http://www.w3.org/1999/xlink">
<g id="graph0" class="graph" transform="scale(1 1) rotate(0) translate(4 1158)">
<title>G</title>
<polygon fill="white" stroke="none" points="-4,4 -4,-1158 1313.56,-1158 1313.56,4 -4,4"/>
<!-- cirque_pinnacle_set_cpi -->
<g id="node1" class="node">
<title>cirque_pinnacle_set_cpi</title>
<ellipse fill="none" stroke="black" cx="100.48" cy="-18" rx="100.48" ry="18"/>
<text xml:space="preserve" text-anchor="middle" x="100.48" y="-12.95" font-family="Times,serif" font-size="14.00">cirque_pinnacle_set_cpi</text>
</g>
<!-- cirque_pinnacle_set_scale -->
<g id="node2" class="node">
<title>cirque_pinnacle_set_scale</title>
<ellipse fill="none" stroke="black" cx="391.71" cy="-18" rx="107.65" ry="18"/>
<text xml:space="preserve" text-anchor="middle" x="391.71" y="-12.95" font-family="Times,serif" font-size="14.00">cirque_pinnacle_set_scale</text>
</g>
<!-- cirque_pinnacle_set_cpi&#45;&gt;cirque_pinnacle_set_scale -->
<g id="edge1" class="edge">
<title>cirque_pinnacle_set_cpi&#45;&gt;cirque_pinnacle_set_scale</title>
<path fill="none" stroke="black" d="M201.42,-18C224.3,-18 248.82,-18 272.38,-18"/>
<polygon fill="black" stroke="black" points="272.35,-21.5 282.35,-18 272.35,-14.5 272.35,-21.5"/>
</g>
<!-- cirque_pinnacle_get_cpi -->
<g id="node3" class="node">
<title>cirque_pinnacle_get_cpi</title>
<ellipse fill="none" stroke="black" cx="391.71" cy="-990" rx="101.51" ry="18"/>
<text xml:space="preserve" text-anchor="middle" x="391.71" y="-984.95" font-family="Times,serif" font-size="14.00">cirque_pinnacle_get_cpi</text>
</g>
<!-- cirque_pinnacle_get_scale -->
<g id="node4" class="node">
<title>cirque_pinnacle_get_scale</title>
<ellipse fill="none" stroke="black" cx="695.21" cy="-990" rx="108.67" ry="18"/>
<text xml:space="preserve" text-anchor="middle" x="695.21" y="-984.95" font-family="Times,serif" font-size="14.00">cirque_pinnacle_get_scale</text>
</g>
<!-- cirque_pinnacle_get_cpi&#45;&gt;cirque_pinnacle_get_scale -->
<g id="edge2" class="edge">
<title>cirque_pinnacle_get_cpi&#45;&gt;cirque_pinnacle_get_scale</title>
<path fill="none" stroke="black" d="M493.52,-990C519.59,-990 547.9,-990 574.81,-990"/>
<polygon fill="black" stroke="black" points="574.73,-993.5 584.73,-990 574.73,-986.5 574.73,-993.5"/>
</g>
<!-- cirque_pinnacle_get_report -->
<g id="node5" class="node">
<title>cirque_pinnacle_get_report</title>
<ellipse fill="none" stroke="black" cx="391.71" cy="-909" rx="112.26" ry="18"/>
<text xml:space="preserve" text-anchor="middle" x="391.71" y="-903.95" font-family="Times,serif" font-size="14.00">cirque_pinnacle_get_report</text>
</g>
<!-- cirque_pinnacle_get_report&#45;&gt;cirque_pinnacle_get_scale -->
<g id="edge3" class="edge">
<title>cirque_pinnacle_get_report&#45;&gt;cirque_pinnacle_get_scale</title>
<path fill="none" stroke="black" d="M446.94,-925.06C484.8,-936.12 536.57,-950.94 582.44,-963 594.54,-966.18 607.41,-969.42 619.95,-972.5"/>
<polygon fill="black" stroke="black" points="618.84,-975.83 629.38,-974.8 620.5,-969.03 618.84,-975.83"/>
</g>
<!-- cirque_pinnacle_read_data -->
<g id="node6" class="node">
<title>cirque_pinnacle_read_data</title>
<ellipse fill="none" stroke="black" cx="695.21" cy="-828" rx="110.21" ry="18"/>
<text xml:space="preserve" text-anchor="middle" x="695.21" y="-822.95" font-family="Times,serif" font-size="14.00">cirque_pinnacle_read_data</text>
</g>
<!-- cirque_pinnacle_get_report&#45;&gt;cirque_pinnacle_read_data -->
<g id="edge4" class="edge">
<title>cirque_pinnacle_get_report&#45;&gt;cirque_pinnacle_read_data</title>
<path fill="none" stroke="black" d="M446.94,-892.94C484.8,-881.88 536.57,-867.06 582.44,-855 594.27,-851.89 606.83,-848.72 619.11,-845.7"/>
<polygon fill="black" stroke="black" points="619.91,-849.11 628.8,-843.34 618.25,-842.31 619.91,-849.11"/>
</g>
<!-- cirque_pinnacle_scale_data -->
<g id="node7" class="node">
<title>cirque_pinnacle_scale_data</title>
<ellipse fill="none" stroke="black" cx="695.21" cy="-882" rx="112.77" ry="18"/>
<text xml:space="preserve" text-anchor="middle" x="695.21" y="-876.95" font-family="Times,serif" font-size="14.00">cirque_pinnacle_scale_data</text>
</g>
<!-- cirque_pinnacle_get_report&#45;&gt;cirque_pinnacle_scale_data -->
<g id="edge5" class="edge">
<title>cirque_pinnacle_get_report&#45;&gt;cirque_pinnacle_scale_data</title>
<path fill="none" stroke="black" d="M490.6,-900.23C520.61,-897.55 553.83,-894.57 584.58,-891.82"/>
<polygon fill="black" stroke="black" points="584.63,-895.33 594.27,-890.95 584,-888.36 584.63,-895.33"/>
</g>
<!-- cirque_pinnacle_gestures -->
<g id="node8" class="node">
<title>cirque_pinnacle_gestures</title>
<ellipse fill="none" stroke="black" cx="695.21" cy="-936" rx="104.58" ry="18"/>
<text xml:space="preserve" text-anchor="middle" x="695.21" y="-930.95" font-family="Times,serif" font-size="14.00">cirque_pinnacle_gestures</text>
</g>
<!-- cirque_pinnacle_get_report&#45;&gt;cirque_pinnacle_gestures -->
<g id="edge6" class="edge">
<title>cirque_pinnacle_get_report&#45;&gt;cirque_pinnacle_gestures</title>
<path fill="none" stroke="black" d="M490.6,-917.77C522.44,-920.62 557.88,-923.79 590.15,-926.68"/>
<polygon fill="black" stroke="black" points="589.64,-930.15 599.92,-927.56 590.27,-923.18 589.64,-930.15"/>
</g>
<!-- RAP_ReadBytes -->
<g id="node9" class="node">
<title>RAP_ReadBytes</title>
<ellipse fill="none" stroke="black" cx="1236.2" cy="-603" rx="73.36" ry="18"/>
<text xml:space="preserve" text-anchor="middle" x="1236.2" y="-597.95" font-family="Times,serif" font-size="14.00">RAP_ReadBytes</text>
</g>
<!-- cirque_pinnacle_read_data&#45;&gt;RAP_ReadBytes -->
<g id="edge7" class="edge">
<title>cirque_pinnacle_read_data&#45;&gt;RAP_ReadBytes</title>
<path fill="none" stroke="black" d="M770.96,-841.38C862.47,-858.24 1018.59,-876.44 1126.84,-808 1189.98,-768.08 1217.84,-679.03 1228.86,-632.4"/>
<polygon fill="black" stroke="black" points="1232.25,-633.25 1231.03,-622.72 1225.42,-631.71 1232.25,-633.25"/>
</g>
<!-- cirque_pinnacle_read_data&#45;&gt;RAP_ReadBytes -->
<g id="edge8" class="edge">
<title>cirque_pinnacle_read_data&#45;&gt;RAP_ReadBytes</title>
<path fill="none" stroke="black" d="M737.86,-845.01C819.67,-869.79 1004.05,-903.63 1126.84,-826 1194.94,-782.94 1222,-682.72 1231.15,-632.46"/>
<polygon fill="black" stroke="black" points="1234.56,-633.33 1232.77,-622.88 1227.65,-632.16 1234.56,-633.33"/>
</g>
<!-- cirque_pinnacle_clear_flags -->
<g id="node10" class="node">
<title>cirque_pinnacle_clear_flags</title>
<ellipse fill="none" stroke="black" cx="985.41" cy="-750" rx="114.82" ry="18"/>
<text xml:space="preserve" text-anchor="middle" x="985.41" y="-744.95" font-family="Times,serif" font-size="14.00">cirque_pinnacle_clear_flags</text>
</g>
<!-- cirque_pinnacle_read_data&#45;&gt;cirque_pinnacle_clear_flags -->
<g id="edge9" class="edge">
<title>cirque_pinnacle_read_data&#45;&gt;cirque_pinnacle_clear_flags</title>
<path fill="none" stroke="black" d="M753.84,-812.4C800.27,-799.84 865.69,-782.13 915,-768.79"/>
<polygon fill="black" stroke="black" points="915.69,-772.22 924.43,-766.23 913.87,-765.47 915.69,-772.22"/>
</g>
<!-- ClipCoordinates -->
<g id="node25" class="node">
<title>ClipCoordinates</title>
<ellipse fill="none" stroke="black" cx="985.41" cy="-916" rx="71.31" ry="18"/>
<text xml:space="preserve" text-anchor="middle" x="985.41" y="-910.95" font-family="Times,serif" font-size="14.00">ClipCoordinates</text>
</g>
<!-- cirque_pinnacle_scale_data&#45;&gt;ClipCoordinates -->
<g id="edge65" class="edge">
<title>cirque_pinnacle_scale_data&#45;&gt;ClipCoordinates</title>
<path fill="none" stroke="black" d="M787,-892.71C826.18,-897.33 871.47,-902.68 908.79,-907.08"/>
<polygon fill="black" stroke="black" points="908.25,-910.54 918.59,-908.24 909.07,-903.59 908.25,-910.54"/>
</g>
<!-- RAP_Write -->
<g id="node12" class="node">
<title>RAP_Write</title>
<ellipse fill="none" stroke="black" cx="1236.2" cy="-238" rx="54.42" ry="18"/>
<text xml:space="preserve" text-anchor="middle" x="1236.2" y="-232.95" font-family="Times,serif" font-size="14.00">RAP_Write</text>
</g>
<!-- cirque_pinnacle_clear_flags&#45;&gt;RAP_Write -->
<g id="edge63" class="edge">
<title>cirque_pinnacle_clear_flags&#45;&gt;RAP_Write</title>
<path fill="none" stroke="black" d="M1087.61,-741.5C1102.23,-736.39 1115.98,-728.88 1126.84,-718 1135.03,-709.79 1207.29,-370.14 1229.04,-267.24"/>
<polygon fill="black" stroke="black" points="1232.42,-268.15 1231.06,-257.65 1225.57,-266.71 1232.42,-268.15"/>
</g>
<!-- wait_us -->
<g id="node14" class="node">
<title>wait_us</title>
<ellipse fill="none" stroke="black" cx="1236.2" cy="-893" rx="39.58" ry="18"/>
<text xml:space="preserve" text-anchor="middle" x="1236.2" y="-887.95" font-family="Times,serif" font-size="14.00">wait_us</text>
</g>
<!-- cirque_pinnacle_clear_flags&#45;&gt;wait_us -->
<g id="edge64" class="edge">
<title>cirque_pinnacle_clear_flags&#45;&gt;wait_us</title>
<path fill="none" stroke="black" d="M1017.17,-767.68C1063.89,-794.54 1152.47,-845.45 1201.1,-873.4"/>
<polygon fill="black" stroke="black" points="1199.12,-876.3 1209.54,-878.25 1202.61,-870.23 1199.12,-876.3"/>
</g>
<!-- cirque_pinnacle_init -->
<g id="node11" class="node">
<title>cirque_pinnacle_init</title>
<ellipse fill="none" stroke="black" cx="100.48" cy="-293" rx="86.67" ry="18"/>
<text xml:space="preserve" text-anchor="middle" x="100.48" y="-287.95" font-family="Times,serif" font-size="14.00">cirque_pinnacle_init</text>
</g>
<!-- cirque_pinnacle_init&#45;&gt;cirque_pinnacle_clear_flags -->
<g id="edge14" class="edge">
<title>cirque_pinnacle_init&#45;&gt;cirque_pinnacle_clear_flags</title>
<path fill="none" stroke="black" d="M104.35,-311.23C113.57,-363.96 147.29,-518.31 236.97,-603 413.03,-769.26 719.62,-772.89 879.94,-761.47"/>
<polygon fill="black" stroke="black" points="880.01,-764.98 889.72,-760.74 879.48,-758 880.01,-764.98"/>
</g>
<!-- cirque_pinnacle_init&#45;&gt;RAP_Write -->
<g id="edge10" class="edge">
<title>cirque_pinnacle_init&#45;&gt;RAP_Write</title>
<path fill="none" stroke="black" d="M127.05,-275.47C221.77,-239.51 561.75,-192.16 843.98,-177 969.51,-170.26 1001.93,-162.78 1126.84,-177 1161.92,-180.99 1202.18,-192.04 1222.31,-211.15"/>
<polygon fill="black" stroke="black" points="1219.54,-213.29 1228.66,-218.68 1224.89,-208.77 1219.54,-213.29"/>
</g>
<!-- cirque_pinnacle_init&#45;&gt;RAP_Write -->
<g id="edge12" class="edge">
<title>cirque_pinnacle_init&#45;&gt;RAP_Write</title>
<path fill="none" stroke="black" d="M147.4,-277.49C263.65,-251.77 579.22,-209.22 843.98,-195 969.51,-188.26 1001.93,-180.78 1126.84,-195 1155.23,-198.23 1187.01,-206.08 1208.77,-215.61"/>
<polygon fill="black" stroke="black" points="1207,-218.64 1217.52,-219.9 1210.08,-212.35 1207,-218.64"/>
</g>
<!-- cirque_pinnacle_init&#45;&gt;RAP_Write -->
<g id="edge15" class="edge">
<title>cirque_pinnacle_init&#45;&gt;RAP_Write</title>
<path fill="none" stroke="black" d="M172.7,-282.75C304.71,-264.33 596.54,-226.29 843.98,-213 969.51,-206.26 1001.93,-198.78 1126.84,-213 1145.42,-215.12 1165.45,-219.21 1183.17,-223.48"/>
<polygon fill="black" stroke="black" points="1182.14,-226.83 1192.69,-225.85 1183.83,-220.04 1182.14,-226.83"/>
</g>
<!-- cirque_pinnacle_init&#45;&gt;RAP_Write -->
<g id="edge16" class="edge">
<title>cirque_pinnacle_init&#45;&gt;RAP_Write</title>
<path fill="none" stroke="black" d="M187.27,-292C325.27,-279.67 605.28,-243.82 843.98,-231 969.51,-224.26 1001.93,-216.78 1126.84,-231 1141.14,-232.63 1156.31,-235.43 1170.62,-238.14"/>
<polygon fill="black" stroke="black" points="1169.92,-241.57 1180.39,-239.98 1171.21,-234.69 1169.92,-241.57"/>
</g>
<!-- cirque_pinnacle_init&#45;&gt;RAP_Write -->
<g id="edge17" class="edge">
<title>cirque_pinnacle_init&#45;&gt;RAP_Write</title>
<path fill="none" stroke="black" d="M171.15,-303.81C302.42,-300.63 595.57,-262.34 843.98,-249 969.51,-242.26 1001.93,-234.78 1126.84,-249 1157.45,-252.49 1192,-261.34 1213.69,-258.8"/>
<polygon fill="black" stroke="black" points="1214.3,-262.25 1223.11,-256.36 1212.55,-255.47 1214.3,-262.25"/>
</g>
<!-- wait_ms -->
<g id="node13" class="node">
<title>wait_ms</title>
<ellipse fill="none" stroke="black" cx="391.71" cy="-358" rx="42.65" ry="18"/>
<text xml:space="preserve" text-anchor="middle" x="391.71" y="-352.95" font-family="Times,serif" font-size="14.00">wait_ms</text>
</g>
<!-- cirque_pinnacle_init&#45;&gt;wait_ms -->
<g id="edge11" class="edge">
<title>cirque_pinnacle_init&#45;&gt;wait_ms</title>
<path fill="none" stroke="black" d="M157.09,-306.99C181.54,-313.03 210.64,-320.05 236.97,-326 271.75,-333.85 311.12,-342.03 341.31,-348.16"/>
<polygon fill="black" stroke="black" points="340.43,-351.55 350.92,-350.1 341.81,-344.69 340.43,-351.55"/>
</g>
<!-- cirque_pinnacle_init&#45;&gt;wait_us -->
<g id="edge13" class="edge">
<title>cirque_pinnacle_init&#45;&gt;wait_us</title>
<path fill="none" stroke="black" d="M101.9,-311.32C104.67,-414.62 123.95,-923.17 236.97,-1017 285.78,-1057.53 744.95,-1024.22 807.98,-1017 952.52,-1000.45 989.22,-990.17 1126.84,-943 1151.71,-934.48 1178.54,-922.12 1199.29,-911.82"/>
<polygon fill="black" stroke="black" points="1200.83,-914.96 1208.19,-907.34 1197.68,-908.71 1200.83,-914.96"/>
</g>
<!-- cirque_pinnacle_set_adc_attenuation -->
<g id="node15" class="node">
<title>cirque_pinnacle_set_adc_attenuation</title>
<ellipse fill="none" stroke="black" cx="391.71" cy="-421" rx="147.57" ry="18"/>
<text xml:space="preserve" text-anchor="middle" x="391.71" y="-415.95" font-family="Times,serif" font-size="14.00">cirque_pinnacle_set_adc_attenuation</text>
</g>
<!-- cirque_pinnacle_init&#45;&gt;cirque_pinnacle_set_adc_attenuation -->
<g id="edge18" class="edge">
<title>cirque_pinnacle_init&#45;&gt;cirque_pinnacle_set_adc_attenuation</title>
<path fill="none" stroke="black" d="M122.1,-310.6C147.48,-331.39 192.7,-365.59 236.97,-385 254.1,-392.51 273.02,-398.58 291.55,-403.43"/>
<polygon fill="black" stroke="black" points="290.7,-406.82 301.25,-405.86 292.4,-400.03 290.7,-406.82"/>
</g>
<!-- cirque_pinnacle_calibrate -->
<g id="node16" class="node">
<title>cirque_pinnacle_calibrate</title>
<ellipse fill="none" stroke="black" cx="695.21" cy="-704" rx="106.11" ry="18"/>
<text xml:space="preserve" text-anchor="middle" x="695.21" y="-698.95" font-family="Times,serif" font-size="14.00">cirque_pinnacle_calibrate</text>
</g>
<!-- cirque_pinnacle_init&#45;&gt;cirque_pinnacle_calibrate -->
<g id="edge19" class="edge">
<title>cirque_pinnacle_init&#45;&gt;cirque_pinnacle_calibrate</title>
<path fill="none" stroke="black" d="M108.58,-311.19C125.26,-351.9 170.64,-451.48 236.97,-511 347.35,-610.05 515.99,-663.15 614.66,-687.32"/>
<polygon fill="black" stroke="black" points="613.74,-690.69 624.28,-689.63 615.37,-683.89 613.74,-690.69"/>
</g>
<!-- cirque_pinnacle_enable_feed -->
<g id="node17" class="node">
<title>cirque_pinnacle_enable_feed</title>
<ellipse fill="none" stroke="black" cx="985.41" cy="-328" rx="118.91" ry="18"/>
<text xml:space="preserve" text-anchor="middle" x="985.41" y="-322.95" font-family="Times,serif" font-size="14.00">cirque_pinnacle_enable_feed</text>
</g>
<!-- cirque_pinnacle_init&#45;&gt;cirque_pinnacle_enable_feed -->
<g id="edge20" class="edge">
<title>cirque_pinnacle_init&#45;&gt;cirque_pinnacle_enable_feed</title>
<path fill="none" stroke="black" d="M186.14,-296.36C342.25,-302.54 676.15,-315.78 858.75,-323.02"/>
<polygon fill="black" stroke="black" points="858.38,-326.51 868.51,-323.41 858.65,-319.51 858.38,-326.51"/>
</g>
<!-- cirque_pinnacle_connected -->
<g id="node18" class="node">
<title>cirque_pinnacle_connected</title>
<ellipse fill="none" stroke="black" cx="985.41" cy="-274" rx="111.74" ry="18"/>
<text xml:space="preserve" text-anchor="middle" x="985.41" y="-268.95" font-family="Times,serif" font-size="14.00">cirque_pinnacle_connected</text>
</g>
<!-- cirque_pinnacle_init&#45;&gt;cirque_pinnacle_connected -->
<g id="edge21" class="edge">
<title>cirque_pinnacle_init&#45;&gt;cirque_pinnacle_connected</title>
<path fill="none" stroke="black" d="M186.95,-291.16C344.56,-287.77 681.43,-280.52 862.8,-276.62"/>
<polygon fill="black" stroke="black" points="862.82,-280.12 872.74,-276.4 862.67,-273.12 862.82,-280.12"/>
</g>
<!-- ERA_ReadBytes -->
<g id="node23" class="node">
<title>ERA_ReadBytes</title>
<ellipse fill="none" stroke="black" cx="695.21" cy="-484" rx="73.87" ry="18"/>
<text xml:space="preserve" text-anchor="middle" x="695.21" y="-478.95" font-family="Times,serif" font-size="14.00">ERA_ReadBytes</text>
</g>
<!-- cirque_pinnacle_set_adc_attenuation&#45;&gt;ERA_ReadBytes -->
<g id="edge40" class="edge">
<title>cirque_pinnacle_set_adc_attenuation&#45;&gt;ERA_ReadBytes</title>
<path fill="none" stroke="black" d="M489.35,-434.85C538.42,-444.34 596.31,-456.75 638.01,-466.86"/>
<polygon fill="black" stroke="black" points="637.03,-470.23 647.58,-469.22 638.71,-463.43 637.03,-470.23"/>
</g>
<!-- cirque_pinnacle_set_adc_attenuation&#45;&gt;ERA_ReadBytes -->
<g id="edge42" class="edge">
<title>cirque_pinnacle_set_adc_attenuation&#45;&gt;ERA_ReadBytes</title>
<path fill="none" stroke="black" d="M448.36,-438C495.86,-449.54 564.64,-464.11 617.38,-473.92"/>
<polygon fill="black" stroke="black" points="616.42,-477.3 626.89,-475.66 617.69,-470.41 616.42,-477.3"/>
</g>
<!-- ERA_WriteByte -->
<g id="node24" class="node">
<title>ERA_WriteByte</title>
<ellipse fill="none" stroke="black" cx="695.21" cy="-374" rx="72.34" ry="18"/>
<text xml:space="preserve" text-anchor="middle" x="695.21" y="-368.95" font-family="Times,serif" font-size="14.00">ERA_WriteByte</text>
</g>
<!-- cirque_pinnacle_set_adc_attenuation&#45;&gt;ERA_WriteByte -->
<g id="edge41" class="edge">
<title>cirque_pinnacle_set_adc_attenuation&#45;&gt;ERA_WriteByte</title>
<path fill="none" stroke="black" d="M484.81,-406.64C528.81,-399.78 580.72,-391.69 621.84,-385.28"/>
<polygon fill="black" stroke="black" points="622.3,-388.75 631.65,-383.75 621.23,-381.84 622.3,-388.75"/>
</g>
<!-- cirque_pinnacle_calibrate&#45;&gt;RAP_ReadBytes -->
<g id="edge28" class="edge">
<title>cirque_pinnacle_calibrate&#45;&gt;RAP_ReadBytes</title>
<path fill="none" stroke="black" d="M733.58,-721.08C762.41,-736.86 803.99,-758.66 843.98,-768 966.4,-796.59 1016.93,-829.03 1126.84,-768 1179.93,-738.52 1210.39,-671.02 1224.8,-631.96"/>
<polygon fill="black" stroke="black" points="1228.04,-633.31 1228.1,-622.71 1221.44,-630.96 1228.04,-633.31"/>
</g>
<!-- cirque_pinnacle_calibrate&#45;&gt;RAP_ReadBytes -->
<g id="edge31" class="edge">
<title>cirque_pinnacle_calibrate&#45;&gt;RAP_ReadBytes</title>
<path fill="none" stroke="black" d="M713.84,-721.91C740.56,-742.61 793.55,-774.22 843.98,-786 966.4,-814.59 1016.93,-847.03 1126.84,-786 1185.12,-753.64 1216.13,-675.47 1228.57,-632.33"/>
<polygon fill="black" stroke="black" points="1231.9,-633.44 1231.14,-622.88 1225.14,-631.61 1231.9,-633.44"/>
</g>
<!-- cirque_pinnacle_calibrate&#45;&gt;cirque_pinnacle_clear_flags -->
<g id="edge33" class="edge">
<title>cirque_pinnacle_calibrate&#45;&gt;cirque_pinnacle_clear_flags</title>
<path fill="none" stroke="black" d="M773.82,-716.39C810.32,-722.21 854.1,-729.2 892.26,-735.29"/>
<polygon fill="black" stroke="black" points="891.47,-738.71 901.89,-736.83 892.57,-731.8 891.47,-738.71"/>
</g>
<!-- cirque_pinnacle_calibrate&#45;&gt;RAP_Write -->
<g id="edge29" class="edge">
<title>cirque_pinnacle_calibrate&#45;&gt;RAP_Write</title>
<path fill="none" stroke="black" d="M789.8,-712.48C900.86,-720.44 1077.29,-725.77 1126.84,-685 1143.43,-671.35 1208.74,-364.57 1229.1,-267.31"/>
<polygon fill="black" stroke="black" points="1232.48,-268.25 1231.1,-257.75 1225.63,-266.82 1232.48,-268.25"/>
</g>
<!-- timer_read -->
<g id="node20" class="node">
<title>timer_read</title>
<ellipse fill="none" stroke="black" cx="985.41" cy="-658" rx="51.35" ry="18"/>
<text xml:space="preserve" text-anchor="middle" x="985.41" y="-652.95" font-family="Times,serif" font-size="14.00">timer_read</text>
</g>
<!-- cirque_pinnacle_calibrate&#45;&gt;timer_read -->
<g id="edge30" class="edge">
<title>cirque_pinnacle_calibrate&#45;&gt;timer_read</title>
<path fill="none" stroke="black" d="M773.82,-691.61C822.03,-683.92 882.96,-674.19 926.86,-667.19"/>
<polygon fill="black" stroke="black" points="927.38,-670.65 936.7,-665.61 926.27,-663.73 927.38,-670.65"/>
</g>
<!-- timer_elapsed -->
<g id="node21" class="node">
<title>timer_elapsed</title>
<ellipse fill="none" stroke="black" cx="985.41" cy="-420" rx="63.12" ry="18"/>
<text xml:space="preserve" text-anchor="middle" x="985.41" y="-414.95" font-family="Times,serif" font-size="14.00">timer_elapsed</text>
</g>
<!-- cirque_pinnacle_calibrate&#45;&gt;timer_elapsed -->
<g id="edge32" class="edge">
<title>cirque_pinnacle_calibrate&#45;&gt;timer_elapsed</title>
<path fill="none" stroke="black" d="M782.94,-693.59C792.25,-689.55 800.89,-684.16 807.98,-677 858.04,-626.43 804.57,-580.24 843.98,-521 867.85,-485.13 909.07,-457.74 940.7,-440.59"/>
<polygon fill="black" stroke="black" points="942.03,-443.85 949.26,-436.09 938.78,-437.65 942.03,-443.85"/>
</g>
<!-- cirque_pinnacle_enable_feed&#45;&gt;RAP_ReadBytes -->
<g id="edge61" class="edge">
<title>cirque_pinnacle_enable_feed&#45;&gt;RAP_ReadBytes</title>
<path fill="none" stroke="black" d="M1084.76,-338.09C1099.98,-342.98 1114.67,-350 1126.84,-360 1194.41,-415.51 1221.3,-521.82 1230.73,-573.43"/>
<polygon fill="black" stroke="black" points="1227.27,-573.98 1232.41,-583.24 1234.17,-572.79 1227.27,-573.98"/>
</g>
<!-- cirque_pinnacle_enable_feed&#45;&gt;RAP_Write -->
<g id="edge62" class="edge">
<title>cirque_pinnacle_enable_feed&#45;&gt;RAP_Write</title>
<path fill="none" stroke="black" d="M1074.56,-315.76C1092.18,-312.01 1110.33,-307.18 1126.84,-301 1153.93,-290.86 1182.11,-274.26 1202.94,-260.64"/>
<polygon fill="black" stroke="black" points="1204.61,-263.74 1210.99,-255.28 1200.72,-257.91 1204.61,-263.74"/>
</g>
<!-- cirque_pinnacle_connected&#45;&gt;RAP_ReadBytes -->
<g id="edge22" class="edge">
<title>cirque_pinnacle_connected&#45;&gt;RAP_ReadBytes</title>
<path fill="none" stroke="black" d="M1097.35,-274.76C1108.07,-278.94 1118.16,-284.57 1126.84,-292 1212.12,-365.03 1230.28,-510.28 1234.15,-573.14"/>
<polygon fill="black" stroke="black" points="1230.65,-573.25 1234.67,-583.06 1237.64,-572.89 1230.65,-573.25"/>
</g>
<!-- cirque_pinnacle_connected&#45;&gt;RAP_ReadBytes -->
<g id="edge24" class="edge">
<title>cirque_pinnacle_connected&#45;&gt;RAP_ReadBytes</title>
<path fill="none" stroke="black" d="M1073.61,-285.31C1092.87,-289.79 1111.94,-297.24 1126.84,-310 1207.79,-379.32 1228.27,-513.7 1233.44,-573.42"/>
<polygon fill="black" stroke="black" points="1229.94,-573.45 1234.2,-583.15 1236.92,-572.91 1229.94,-573.45"/>
</g>
<!-- cirque_pinnacle_connected&#45;&gt;RAP_Write -->
<g id="edge23" class="edge">
<title>cirque_pinnacle_connected&#45;&gt;RAP_Write</title>
<path fill="none" stroke="black" d="M1049.83,-258.85C1086.89,-252.46 1133.53,-245.7 1170.75,-241.33"/>
<polygon fill="black" stroke="black" points="1170.94,-244.83 1180.48,-240.22 1170.15,-237.87 1170.94,-244.83"/>
</g>
<!-- cirque_pinnacle_connected&#45;&gt;RAP_Write -->
<g id="edge25" class="edge">
<title>cirque_pinnacle_connected&#45;&gt;RAP_Write</title>
<path fill="none" stroke="black" d="M1086.88,-266.1C1119.48,-261.69 1154.35,-256.32 1182.09,-251.33"/>
<polygon fill="black" stroke="black" points="1182.43,-254.83 1191.63,-249.57 1181.16,-247.94 1182.43,-254.83"/>
</g>
<!-- cirque_pinnacle_cursor_smoothing -->
<g id="node19" class="node">
<title>cirque_pinnacle_cursor_smoothing</title>
<ellipse fill="none" stroke="black" cx="985.41" cy="-548" rx="141.43" ry="18"/>
<text xml:space="preserve" text-anchor="middle" x="985.41" y="-542.95" font-family="Times,serif" font-size="14.00">cirque_pinnacle_cursor_smoothing</text>
</g>
<!-- cirque_pinnacle_cursor_smoothing&#45;&gt;RAP_ReadBytes -->
<g id="edge26" class="edge">
<title>cirque_pinnacle_cursor_smoothing&#45;&gt;RAP_ReadBytes</title>
<path fill="none" stroke="black" d="M1058.04,-563.83C1093.27,-571.62 1135.43,-580.94 1169.79,-588.54"/>
<polygon fill="black" stroke="black" points="1168.65,-591.87 1179.17,-590.61 1170.16,-585.04 1168.65,-591.87"/>
</g>
<!-- cirque_pinnacle_cursor_smoothing&#45;&gt;RAP_Write -->
<g id="edge27" class="edge">
<title>cirque_pinnacle_cursor_smoothing&#45;&gt;RAP_Write</title>
<path fill="none" stroke="black" d="M1092.34,-535.87C1104.9,-531.1 1116.8,-524.65 1126.84,-516 1202.86,-450.45 1225.88,-324.85 1232.58,-267.67"/>
<polygon fill="black" stroke="black" points="1236.06,-268.06 1233.64,-257.74 1229.1,-267.31 1236.06,-268.06"/>
</g>
<!-- cirque_pinnacle_tune_edge_sensitivity -->
<g id="node22" class="node">
<title>cirque_pinnacle_tune_edge_sensitivity</title>
<ellipse fill="none" stroke="black" cx="391.71" cy="-484" rx="154.74" ry="18"/>
<text xml:space="preserve" text-anchor="middle" x="391.71" y="-478.95" font-family="Times,serif" font-size="14.00">cirque_pinnacle_tune_edge_sensitivity</text>
</g>
<!-- cirque_pinnacle_tune_edge_sensitivity&#45;&gt;ERA_ReadBytes -->
<g id="edge34" class="edge">
<title>cirque_pinnacle_tune_edge_sensitivity&#45;&gt;ERA_ReadBytes</title>
<path fill="none" stroke="black" d="M455.91,-467.16C510.17,-462.36 587.59,-462.63 639.3,-467.95"/>
<polygon fill="black" stroke="black" points="638.74,-471.41 649.07,-469.07 639.53,-464.45 638.74,-471.41"/>
</g>
<!-- cirque_pinnacle_tune_edge_sensitivity&#45;&gt;ERA_ReadBytes -->
<g id="edge36" class="edge">
<title>cirque_pinnacle_tune_edge_sensitivity&#45;&gt;ERA_ReadBytes</title>
<path fill="none" stroke="black" d="M535.95,-477.26C562.59,-477.2 589.54,-477.43 613.47,-477.94"/>
<polygon fill="black" stroke="black" points="613.36,-481.44 623.44,-478.18 613.53,-474.44 613.36,-481.44"/>
</g>
<!-- cirque_pinnacle_tune_edge_sensitivity&#45;&gt;ERA_ReadBytes -->
<g id="edge37" class="edge">
<title>cirque_pinnacle_tune_edge_sensitivity&#45;&gt;ERA_ReadBytes</title>
<path fill="none" stroke="black" d="M535.95,-490.74C562.59,-490.8 589.54,-490.57 613.47,-490.06"/>
<polygon fill="black" stroke="black" points="613.53,-493.56 623.44,-489.82 613.36,-486.56 613.53,-493.56"/>
</g>
<!-- cirque_pinnacle_tune_edge_sensitivity&#45;&gt;ERA_ReadBytes -->
<g id="edge39" class="edge">
<title>cirque_pinnacle_tune_edge_sensitivity&#45;&gt;ERA_ReadBytes</title>
<path fill="none" stroke="black" d="M455.91,-500.84C510.17,-505.64 587.59,-505.37 639.3,-500.05"/>
<polygon fill="black" stroke="black" points="639.53,-503.55 649.07,-498.93 638.74,-496.59 639.53,-503.55"/>
</g>
<!-- cirque_pinnacle_tune_edge_sensitivity&#45;&gt;ERA_WriteByte -->
<g id="edge35" class="edge">
<title>cirque_pinnacle_tune_edge_sensitivity&#45;&gt;ERA_WriteByte</title>
<path fill="none" stroke="black" d="M469.92,-468.04C495.78,-462.36 523.76,-453.65 546.44,-439 568.54,-424.72 560.39,-406.36 582.44,-392 591.38,-386.18 601.46,-381.61 611.81,-378.11"/>
<polygon fill="black" stroke="black" points="612.65,-381.52 621.21,-375.28 610.63,-374.81 612.65,-381.52"/>
</g>
<!-- cirque_pinnacle_tune_edge_sensitivity&#45;&gt;ERA_WriteByte -->
<g id="edge38" class="edge">
<title>cirque_pinnacle_tune_edge_sensitivity&#45;&gt;ERA_WriteByte</title>
<path fill="none" stroke="black" d="M514.72,-472.8C525.88,-468.54 536.66,-463.32 546.44,-457 568.54,-442.72 560.39,-424.36 582.44,-410 597.4,-400.26 615.55,-394.03 632.83,-389.67"/>
<polygon fill="black" stroke="black" points="633.6,-393.08 642.54,-387.39 632.01,-386.26 633.6,-393.08"/>
</g>
<!-- ERA_ReadBytes&#45;&gt;RAP_ReadBytes -->
<g id="edge57" class="edge">
<title>ERA_ReadBytes&#45;&gt;RAP_ReadBytes</title>
<path fill="none" stroke="black" d="M725.22,-500.87C753.58,-520.55 798.96,-551.49 843.98,-566 946.27,-598.96 1071.13,-601.92 1151.85,-601.46"/>
<polygon fill="black" stroke="black" points="1151.46,-604.96 1161.43,-601.38 1151.4,-597.96 1151.46,-604.96"/>
</g>
<!-- ERA_ReadBytes&#45;&gt;RAP_ReadBytes -->
<g id="edge59" class="edge">
<title>ERA_ReadBytes&#45;&gt;RAP_ReadBytes</title>
<path fill="none" stroke="black" d="M710.94,-502C736.23,-526.13 790.35,-566.72 843.98,-584 951.62,-618.68 1084.26,-620.15 1164.15,-614.44"/>
<polygon fill="black" stroke="black" points="1164.34,-617.94 1174.03,-613.67 1163.79,-610.96 1164.34,-617.94"/>
</g>
<!-- ERA_ReadBytes&#45;&gt;cirque_pinnacle_clear_flags -->
<g id="edge60" class="edge">
<title>ERA_ReadBytes&#45;&gt;cirque_pinnacle_clear_flags</title>
<path fill="none" stroke="black" d="M711.95,-501.76C734.46,-527.55 776.61,-577.3 807.98,-623 826.02,-649.27 820.43,-663.54 843.98,-685 865.62,-704.72 894.28,-719.43 920.07,-729.82"/>
<polygon fill="black" stroke="black" points="918.54,-732.99 929.13,-733.33 921.07,-726.46 918.54,-732.99"/>
</g>
<!-- ERA_ReadBytes&#45;&gt;RAP_Write -->
<g id="edge53" class="edge">
<title>ERA_ReadBytes&#45;&gt;RAP_Write</title>
<path fill="none" stroke="black" d="M769.42,-485.22C861.11,-492.71 1019.22,-500.92 1126.84,-429 1184.71,-390.33 1213.53,-310.63 1226.35,-266.89"/>
<polygon fill="black" stroke="black" points="1229.64,-268.12 1229,-257.54 1222.91,-266.21 1229.64,-268.12"/>
</g>
<!-- ERA_ReadBytes&#45;&gt;RAP_Write -->
<g id="edge54" class="edge">
<title>ERA_ReadBytes&#45;&gt;RAP_Write</title>
<path fill="none" stroke="black" d="M753.8,-495.36C842.14,-509.46 1012.82,-523.19 1126.84,-447 1189.83,-404.91 1218.41,-314.19 1229.39,-267.34"/>
<polygon fill="black" stroke="black" points="1232.79,-268.16 1231.54,-257.64 1225.96,-266.65 1232.79,-268.16"/>
</g>
<!-- ERA_ReadBytes&#45;&gt;RAP_Write -->
<g id="edge55" class="edge">
<title>ERA_ReadBytes&#45;&gt;RAP_Write</title>
<path fill="none" stroke="black" d="M729.36,-500.33C806.52,-523.69 1001.13,-549.01 1126.84,-465 1194.32,-419.91 1222.31,-319.01 1231.47,-267.62"/>
<polygon fill="black" stroke="black" points="1234.93,-268.19 1233.08,-257.76 1228.02,-267.07 1234.93,-268.19"/>
</g>
<!-- ERA_ReadBytes&#45;&gt;cirque_pinnacle_enable_feed -->
<g id="edge52" class="edge">
<title>ERA_ReadBytes&#45;&gt;cirque_pinnacle_enable_feed</title>
<path fill="none" stroke="black" d="M761.9,-476.03C778.12,-471.72 794.65,-465.12 807.98,-455 833.36,-435.73 820.43,-414.46 843.98,-393 865.53,-373.36 894.05,-358.68 919.76,-348.3"/>
<polygon fill="black" stroke="black" points="920.73,-351.68 928.79,-344.8 918.2,-345.15 920.73,-351.68"/>
</g>
<!-- ERA_ReadBytes&#45;&gt;timer_read -->
<g id="edge56" class="edge">
<title>ERA_ReadBytes&#45;&gt;timer_read</title>
<path fill="none" stroke="black" d="M709.49,-502.01C733.01,-532.55 785.11,-594.24 843.98,-626 868.52,-639.24 898.32,-647.02 924.15,-651.58"/>
<polygon fill="black" stroke="black" points="923.39,-655 933.83,-653.15 924.52,-648.09 923.39,-655"/>
</g>
<!-- ERA_ReadBytes&#45;&gt;timer_elapsed -->
<g id="edge58" class="edge">
<title>ERA_ReadBytes&#45;&gt;timer_elapsed</title>
<path fill="none" stroke="black" d="M751.1,-471.81C800.29,-460.89 872.36,-444.88 923.35,-433.56"/>
<polygon fill="black" stroke="black" points="924.06,-436.99 933.07,-431.4 922.55,-430.15 924.06,-436.99"/>
</g>
<!-- ERA_WriteByte&#45;&gt;RAP_ReadBytes -->
<g id="edge49" class="edge">
<title>ERA_WriteByte&#45;&gt;RAP_ReadBytes</title>
<path fill="none" stroke="black" d="M765.05,-368.88C871.22,-362.33 1068.77,-355.84 1126.84,-393 1191.03,-434.08 1219.12,-526.11 1229.7,-573.52"/>
<polygon fill="black" stroke="black" points="1226.23,-574.01 1231.71,-583.08 1233.08,-572.57 1226.23,-574.01"/>
</g>
<!-- ERA_WriteByte&#45;&gt;cirque_pinnacle_clear_flags -->
<g id="edge51" class="edge">
<title>ERA_WriteByte&#45;&gt;cirque_pinnacle_clear_flags</title>
<path fill="none" stroke="black" d="M766.38,-377.71C782.05,-381.82 797.2,-388.95 807.98,-401 892.82,-495.82 768.85,-582.32 843.98,-685 859.66,-706.44 884.18,-721.01 908.37,-730.82"/>
<polygon fill="black" stroke="black" points="907.05,-734.07 917.64,-734.34 909.53,-727.52 907.05,-734.07"/>
</g>
<!-- ERA_WriteByte&#45;&gt;RAP_Write -->
<g id="edge44" class="edge">
<title>ERA_WriteByte&#45;&gt;RAP_Write</title>
<path fill="none" stroke="black" d="M701.38,-355.73C718.55,-317.26 776.4,-245.94 843.98,-220 969.55,-171.8 1134.88,-192.77 1203.37,-217.24"/>
<polygon fill="black" stroke="black" points="1201.89,-220.42 1212.48,-220.8 1204.43,-213.9 1201.89,-220.42"/>
</g>
<!-- ERA_WriteByte&#45;&gt;RAP_Write -->
<g id="edge45" class="edge">
<title>ERA_WriteByte&#45;&gt;RAP_Write</title>
<path fill="none" stroke="black" d="M706.23,-355.78C727.8,-324.21 781.77,-261.88 843.98,-238 959.51,-193.66 1108.7,-207.86 1185.15,-222.99"/>
<polygon fill="black" stroke="black" points="1184.35,-226.39 1194.86,-225.01 1185.78,-219.54 1184.35,-226.39"/>
</g>
<!-- ERA_WriteByte&#45;&gt;RAP_Write -->
<g id="edge46" class="edge">
<title>ERA_WriteByte&#45;&gt;RAP_Write</title>
<path fill="none" stroke="black" d="M714.63,-356.4C739.95,-328.77 788.71,-277.21 843.98,-256 952.95,-214.18 1091.85,-224.43 1171.44,-232.99"/>
<polygon fill="black" stroke="black" points="1170.91,-236.45 1181.23,-234.06 1171.68,-229.49 1170.91,-236.45"/>
</g>
<!-- ERA_WriteByte&#45;&gt;RAP_Write -->
<g id="edge47" class="edge">
<title>ERA_WriteByte&#45;&gt;RAP_Write</title>
<path fill="none" stroke="black" d="M727.14,-357.38C754.3,-332.39 796.77,-292.12 843.98,-274 954.91,-231.42 1096.87,-242.82 1175.68,-245.71"/>
<polygon fill="black" stroke="black" points="1175.22,-249.19 1185.33,-246.02 1175.45,-242.2 1175.22,-249.19"/>
</g>
<!-- ERA_WriteByte&#45;&gt;cirque_pinnacle_enable_feed -->
<g id="edge43" class="edge">
<title>ERA_WriteByte&#45;&gt;cirque_pinnacle_enable_feed</title>
<path fill="none" stroke="black" d="M756.98,-364.3C795.72,-358.12 846.7,-349.98 890.58,-342.98"/>
<polygon fill="black" stroke="black" points="891.04,-346.45 900.36,-341.41 889.94,-339.53 891.04,-346.45"/>
</g>
<!-- ERA_WriteByte&#45;&gt;timer_read -->
<g id="edge48" class="edge">
<title>ERA_WriteByte&#45;&gt;timer_read</title>
<path fill="none" stroke="black" d="M765.73,-378.31C781.42,-382.41 796.74,-389.38 807.98,-401 862.89,-457.76 798.06,-510.75 843.98,-575 866.59,-606.64 905.35,-628.21 936.42,-641.42"/>
<polygon fill="black" stroke="black" points="935.07,-644.65 945.65,-645.18 937.71,-638.17 935.07,-644.65"/>
</g>
<!-- ERA_WriteByte&#45;&gt;timer_elapsed -->
<g id="edge50" class="edge">
<title>ERA_WriteByte&#45;&gt;timer_elapsed</title>
<path fill="none" stroke="black" d="M756.98,-383.7C804.22,-391.24 869.67,-401.69 918.23,-409.44"/>
<polygon fill="black" stroke="black" points="917.65,-412.89 928.07,-411.01 918.75,-405.98 917.65,-412.89"/>
</g>
<!-- _OSSwapInt64 -->
<g id="node26" class="node">
<title>_OSSwapInt64</title>
<ellipse fill="none" stroke="black" cx="100.48" cy="-1082" rx="67.22" ry="18"/>
<text xml:space="preserve" text-anchor="middle" x="100.48" y="-1076.95" font-family="Times,serif" font-size="14.00">_OSSwapInt64</text>
</g>
<!-- __builtin_bswap64 -->
<g id="node27" class="node">
<title>__builtin_bswap64</title>
<ellipse fill="none" stroke="black" cx="391.71" cy="-1082" rx="81.55" ry="18"/>
<text xml:space="preserve" text-anchor="middle" x="391.71" y="-1076.95" font-family="Times,serif" font-size="14.00">__builtin_bswap64</text>
</g>
<!-- _OSSwapInt64&#45;&gt;__builtin_bswap64 -->
<g id="edge66" class="edge">
<title>_OSSwapInt64&#45;&gt;__builtin_bswap64</title>
<path fill="none" stroke="black" d="M168.2,-1082C206.86,-1082 256.11,-1082 298.44,-1082"/>
<polygon fill="black" stroke="black" points="298.39,-1085.5 308.39,-1082 298.39,-1078.5 298.39,-1085.5"/>
</g>
<!-- _OSSwapInt32 -->
<g id="node28" class="node">
<title>_OSSwapInt32</title>
<ellipse fill="none" stroke="black" cx="100.48" cy="-1136" rx="67.22" ry="18"/>
<text xml:space="preserve" text-anchor="middle" x="100.48" y="-1130.95" font-family="Times,serif" font-size="14.00">_OSSwapInt32</text>
</g>
<!-- __builtin_bswap32 -->
<g id="node29" class="node">
<title>__builtin_bswap32</title>
<ellipse fill="none" stroke="black" cx="391.71" cy="-1136" rx="81.55" ry="18"/>
<text xml:space="preserve" text-anchor="middle" x="391.71" y="-1130.95" font-family="Times,serif" font-size="14.00">__builtin_bswap32</text>
</g>
<!-- _OSSwapInt32&#45;&gt;__builtin_bswap32 -->
<g id="edge67" class="edge">
<title>_OSSwapInt32&#45;&gt;__builtin_bswap32</title>
<path fill="none" stroke="black" d="M168.2,-1136C206.86,-1136 256.11,-1136 298.44,-1136"/>
<polygon fill="black" stroke="black" points="298.39,-1139.5 308.39,-1136 298.39,-1132.5 298.39,-1139.5"/>
</g>
<!-- timer_elapsed_fast -->
<g id="node30" class="node">
<title>timer_elapsed_fast</title>
<ellipse fill="none" stroke="black" cx="695.21" cy="-428" rx="81.04" ry="18"/>
<text xml:space="preserve" text-anchor="middle" x="695.21" y="-422.95" font-family="Times,serif" font-size="14.00">timer_elapsed_fast</text>
</g>
<!-- timer_elapsed_fast&#45;&gt;timer_elapsed -->
<g id="edge68" class="edge">
<title>timer_elapsed_fast&#45;&gt;timer_elapsed</title>
<path fill="none" stroke="black" d="M776.11,-425.78C818.29,-424.61 869.69,-423.18 910.88,-422.04"/>
<polygon fill="black" stroke="black" points="910.8,-425.54 920.7,-421.77 910.6,-418.55 910.8,-425.54"/>
</g>
<!-- timer_read_fast -->
<g id="node31" class="node">
<title>timer_read_fast</title>
<ellipse fill="none" stroke="black" cx="695.21" cy="-650" rx="69.26" ry="18"/>
<text xml:space="preserve" text-anchor="middle" x="695.21" y="-644.95" font-family="Times,serif" font-size="14.00">timer_read_fast</text>
</g>
<!-- timer_read_fast&#45;&gt;timer_read -->
<g id="edge69" class="edge">
<title>timer_read_fast&#45;&gt;timer_read</title>
<path fill="none" stroke="black" d="M764.51,-651.9C812.39,-653.22 875.87,-654.99 922.31,-656.28"/>
<polygon fill="black" stroke="black" points="922.13,-659.77 932.22,-656.55 922.32,-652.78 922.13,-659.77"/>
</g>
</g>
</svg>
