<?xml version="1.0" encoding="UTF-8" standalone="no"?>
<!DOCTYPE svg PUBLIC "-//W3C//DTD SVG 1.1//EN"
 "http://www.w3.org/Graphics/SVG/1.1/DTD/svg11.dtd">
<!-- Generated by graphviz version 2.43.0 (0)
 -->
<!-- Title: G Pages: 1 -->
<svg width="1552pt" height="1088pt"
 viewBox="0.00 0.00 1551.98 1087.78" xmlns="http://www.w3.org/2000/svg" xmlns:xlink="http://www.w3.org/1999/xlink">
<g id="graph0" class="graph" transform="scale(1 1) rotate(0) translate(4 1083.78)">
<title>G</title>
<polygon fill="white" stroke="transparent" points="-4,4 -4,-1083.78 1547.98,-1083.78 1547.98,4 -4,4"/>
<!-- cirque_pinnacle_set_cpi -->
<g id="node1" class="node">
<title>cirque_pinnacle_set_cpi</title>
<ellipse fill="none" stroke="black" cx="120.24" cy="-18" rx="120.48" ry="18"/>
<text text-anchor="middle" x="120.24" y="-14.3" font-family="Times,serif" font-size="14.00">cirque_pinnacle_set_cpi</text>
</g>
<!-- cirque_pinnacle_set_scale -->
<g id="node2" class="node">
<title>cirque_pinnacle_set_scale</title>
<ellipse fill="none" stroke="black" cx="464.96" cy="-18" rx="129.98" ry="18"/>
<text text-anchor="middle" x="464.96" y="-14.3" font-family="Times,serif" font-size="14.00">cirque_pinnacle_set_scale</text>
</g>
<!-- cirque_pinnacle_set_cpi&#45;&gt;cirque_pinnacle_set_scale -->
<g id="edge1" class="edge">
<title>cirque_pinnacle_set_cpi&#45;&gt;cirque_pinnacle_set_scale</title>
<path fill="none" stroke="black" d="M240.63,-18C267.72,-18 296.74,-18 324.58,-18"/>
<polygon fill="black" stroke="black" points="324.78,-21.5 334.78,-18 324.78,-14.5 324.78,-21.5"/>
</g>
<!-- cirque_pinnacle_get_cpi -->
<g id="node3" class="node">
<title>cirque_pinnacle_get_cpi</title>
<ellipse fill="none" stroke="black" cx="464.96" cy="-990" rx="120.78" ry="18"/>
<text text-anchor="middle" x="464.96" y="-986.3" font-family="Times,serif" font-size="14.00">cirque_pinnacle_get_cpi</text>
</g>
<!-- cirque_pinnacle_get_scale -->
<g id="node4" class="node">
<title>cirque_pinnacle_get_scale</title>
<ellipse fill="none" stroke="black" cx="825.28" cy="-990" rx="130.78" ry="18"/>
<text text-anchor="middle" x="825.28" y="-986.3" font-family="Times,serif" font-size="14.00">cirque_pinnacle_get_scale</text>
</g>
<!-- cirque_pinnacle_get_cpi&#45;&gt;cirque_pinnacle_get_scale -->
<g id="edge2" class="edge">
<title>cirque_pinnacle_get_cpi&#45;&gt;cirque_pinnacle_get_scale</title>
<path fill="none" stroke="black" d="M586.27,-990C617.78,-990 652.02,-990 684.45,-990"/>
<polygon fill="black" stroke="black" points="684.45,-993.5 694.45,-990 684.45,-986.5 684.45,-993.5"/>
</g>
<!-- cirque_pinnacle_get_report -->
<g id="node5" class="node">
<title>cirque_pinnacle_get_report</title>
<ellipse fill="none" stroke="black" cx="464.96" cy="-909" rx="136.48" ry="18"/>
<text text-anchor="middle" x="464.96" y="-905.3" font-family="Times,serif" font-size="14.00">cirque_pinnacle_get_report</text>
</g>
<!-- cirque_pinnacle_get_report&#45;&gt;cirque_pinnacle_get_scale -->
<g id="edge3" class="edge">
<title>cirque_pinnacle_get_report&#45;&gt;cirque_pinnacle_get_scale</title>
<path fill="none" stroke="black" d="M528.9,-924.91C573.6,-936.04 635.07,-950.99 689.45,-963 705.28,-966.5 722.2,-970.04 738.51,-973.35"/>
<polygon fill="black" stroke="black" points="738.08,-976.84 748.58,-975.39 739.47,-969.98 738.08,-976.84"/>
</g>
<!-- cirque_pinnacle_read_data -->
<g id="node6" class="node">
<title>cirque_pinnacle_read_data</title>
<ellipse fill="none" stroke="black" cx="825.28" cy="-828" rx="133.78" ry="18"/>
<text text-anchor="middle" x="825.28" y="-824.3" font-family="Times,serif" font-size="14.00">cirque_pinnacle_read_data</text>
</g>
<!-- cirque_pinnacle_get_report&#45;&gt;cirque_pinnacle_read_data -->
<g id="edge4" class="edge">
<title>cirque_pinnacle_get_report&#45;&gt;cirque_pinnacle_read_data</title>
<path fill="none" stroke="black" d="M528.9,-893.09C573.6,-881.96 635.07,-867.01 689.45,-855 705.08,-851.55 721.78,-848.05 737.92,-844.77"/>
<polygon fill="black" stroke="black" points="738.76,-848.17 747.87,-842.76 737.38,-841.31 738.76,-848.17"/>
</g>
<!-- cirque_pinnacle_scale_data -->
<g id="node7" class="node">
<title>cirque_pinnacle_scale_data</title>
<ellipse fill="none" stroke="black" cx="825.28" cy="-882" rx="135.68" ry="18"/>
<text text-anchor="middle" x="825.28" y="-878.3" font-family="Times,serif" font-size="14.00">cirque_pinnacle_scale_data</text>
</g>
<!-- cirque_pinnacle_get_report&#45;&gt;cirque_pinnacle_scale_data -->
<g id="edge5" class="edge">
<title>cirque_pinnacle_get_report&#45;&gt;cirque_pinnacle_scale_data</title>
<path fill="none" stroke="black" d="M583.79,-900.12C619.86,-897.4 659.72,-894.4 696.43,-891.63"/>
<polygon fill="black" stroke="black" points="696.99,-895.1 706.69,-890.86 696.46,-888.12 696.99,-895.1"/>
</g>
<!-- cirque_pinnacle_gestures -->
<g id="node8" class="node">
<title>cirque_pinnacle_gestures</title>
<ellipse fill="none" stroke="black" cx="825.28" cy="-936" rx="128.08" ry="18"/>
<text text-anchor="middle" x="825.28" y="-932.3" font-family="Times,serif" font-size="14.00">cirque_pinnacle_gestures</text>
</g>
<!-- cirque_pinnacle_get_report&#45;&gt;cirque_pinnacle_gestures -->
<g id="edge6" class="edge">
<title>cirque_pinnacle_get_report&#45;&gt;cirque_pinnacle_gestures</title>
<path fill="none" stroke="black" d="M583.79,-917.88C621.7,-920.74 663.79,-923.91 702.02,-926.79"/>
<polygon fill="black" stroke="black" points="701.93,-930.29 712.17,-927.55 702.46,-923.31 701.93,-930.29"/>
</g>
<!-- RAP_ReadBytes -->
<g id="node9" class="node">
<title>RAP_ReadBytes</title>
<ellipse fill="none" stroke="black" cx="1459.48" cy="-603" rx="84.49" ry="18"/>
<text text-anchor="middle" x="1459.48" y="-599.3" font-family="Times,serif" font-size="14.00">RAP_ReadBytes</text>
</g>
<!-- cirque_pinnacle_read_data&#45;&gt;RAP_ReadBytes -->
<g id="edge7" class="edge">
<title>cirque_pinnacle_read_data&#45;&gt;RAP_ReadBytes</title>
<path fill="none" stroke="black" d="M954.59,-832.78C1085.08,-839.61 1276.67,-845.49 1338.99,-808 1405.27,-768.14 1437.67,-677.01 1450.88,-630.72"/>
<polygon fill="black" stroke="black" points="1454.27,-631.6 1453.56,-621.03 1447.53,-629.74 1454.27,-631.6"/>
</g>
<!-- cirque_pinnacle_read_data&#45;&gt;RAP_ReadBytes -->
<g id="edge8" class="edge">
<title>cirque_pinnacle_read_data&#45;&gt;RAP_ReadBytes</title>
<path fill="none" stroke="black" d="M911.07,-841.84C1037.82,-855.6 1269.28,-867.93 1338.99,-826 1410.31,-783.1 1442.4,-680.84 1453.58,-630.95"/>
<polygon fill="black" stroke="black" points="1457.01,-631.64 1455.65,-621.14 1450.16,-630.2 1457.01,-631.64"/>
</g>
<!-- cirque_pinnacle_clear_flags -->
<g id="node10" class="node">
<title>cirque_pinnacle_clear_flags</title>
<ellipse fill="none" stroke="black" cx="1168.06" cy="-750" rx="137.28" ry="18"/>
<text text-anchor="middle" x="1168.06" y="-746.3" font-family="Times,serif" font-size="14.00">cirque_pinnacle_clear_flags</text>
</g>
<!-- cirque_pinnacle_read_data&#45;&gt;cirque_pinnacle_clear_flags -->
<g id="edge9" class="edge">
<title>cirque_pinnacle_read_data&#45;&gt;cirque_pinnacle_clear_flags</title>
<path fill="none" stroke="black" d="M894.02,-812.5C950.16,-799.64 1030.02,-781.37 1088.87,-767.9"/>
<polygon fill="black" stroke="black" points="1089.9,-771.25 1098.87,-765.61 1088.34,-764.43 1089.9,-771.25"/>
</g>
<!-- ClipCoordinates -->
<g id="node25" class="node">
<title>ClipCoordinates</title>
<ellipse fill="none" stroke="black" cx="1168.06" cy="-916" rx="85.29" ry="18"/>
<text text-anchor="middle" x="1168.06" y="-912.3" font-family="Times,serif" font-size="14.00">ClipCoordinates</text>
</g>
<!-- cirque_pinnacle_scale_data&#45;&gt;ClipCoordinates -->
<g id="edge65" class="edge">
<title>cirque_pinnacle_scale_data&#45;&gt;ClipCoordinates</title>
<path fill="none" stroke="black" d="M934.57,-892.8C981.67,-897.5 1036.11,-902.93 1080.46,-907.36"/>
<polygon fill="black" stroke="black" points="1080.33,-910.86 1090.63,-908.37 1081.03,-903.9 1080.33,-910.86"/>
</g>
<!-- RAP_Write -->
<g id="node12" class="node">
<title>RAP_Write</title>
<ellipse fill="none" stroke="black" cx="1459.48" cy="-238" rx="59.59" ry="18"/>
<text text-anchor="middle" x="1459.48" y="-234.3" font-family="Times,serif" font-size="14.00">RAP_Write</text>
</g>
<!-- cirque_pinnacle_clear_flags&#45;&gt;RAP_Write -->
<g id="edge63" class="edge">
<title>cirque_pinnacle_clear_flags&#45;&gt;RAP_Write</title>
<path fill="none" stroke="black" d="M1295.34,-743.2C1311.49,-737.7 1326.65,-729.64 1338.99,-718 1340.06,-716.99 1426.17,-368.75 1451.53,-266.13"/>
<polygon fill="black" stroke="black" points="1454.99,-266.74 1453.99,-256.19 1448.19,-265.06 1454.99,-266.74"/>
</g>
<!-- wait_us -->
<g id="node14" class="node">
<title>wait_us</title>
<ellipse fill="none" stroke="black" cx="1459.48" cy="-893" rx="46.29" ry="18"/>
<text text-anchor="middle" x="1459.48" y="-889.3" font-family="Times,serif" font-size="14.00">wait_us</text>
</g>
<!-- cirque_pinnacle_clear_flags&#45;&gt;wait_us -->
<g id="edge64" class="edge">
<title>cirque_pinnacle_clear_flags&#45;&gt;wait_us</title>
<path fill="none" stroke="black" d="M1204.26,-767.39C1259.08,-794.48 1364.42,-846.53 1420.76,-874.36"/>
<polygon fill="black" stroke="black" points="1419.51,-877.65 1430.02,-878.94 1422.61,-871.37 1419.51,-877.65"/>
</g>
<!-- cirque_pinnacle_init -->
<g id="node11" class="node">
<title>cirque_pinnacle_init</title>
<ellipse fill="none" stroke="black" cx="120.24" cy="-293" rx="103.18" ry="18"/>
<text text-anchor="middle" x="120.24" y="-289.3" font-family="Times,serif" font-size="14.00">cirque_pinnacle_init</text>
</g>
<!-- cirque_pinnacle_init&#45;&gt;cirque_pinnacle_clear_flags -->
<g id="edge14" class="edge">
<title>cirque_pinnacle_init&#45;&gt;cirque_pinnacle_clear_flags</title>
<path fill="none" stroke="black" d="M124.97,-311.33C136.87,-365.06 179,-523.54 276.48,-606 503.86,-798.35 884.81,-784.4 1065.74,-764.5"/>
<polygon fill="black" stroke="black" points="1066.24,-767.96 1075.79,-763.36 1065.46,-761.01 1066.24,-767.96"/>
</g>
<!-- cirque_pinnacle_init&#45;&gt;RAP_Write -->
<g id="edge10" class="edge">
<title>cirque_pinnacle_init&#45;&gt;RAP_Write</title>
<path fill="none" stroke="black" d="M150.28,-275.75C260.47,-239.41 663.39,-190.59 997.12,-175 1148.9,-167.91 1187.99,-158.15 1338.99,-175 1378.7,-179.43 1424.47,-191.9 1446.03,-212.44"/>
<polygon fill="black" stroke="black" points="1443.41,-214.77 1452.59,-220.05 1448.71,-210.19 1443.41,-214.77"/>
</g>
<!-- cirque_pinnacle_init&#45;&gt;RAP_Write -->
<g id="edge12" class="edge">
<title>cirque_pinnacle_init&#45;&gt;RAP_Write</title>
<path fill="none" stroke="black" d="M173.94,-277.61C309.94,-251.51 683.99,-207.63 997.12,-193 1148.9,-185.91 1187.99,-176.15 1338.99,-193 1371.69,-196.65 1408.5,-205.75 1432.51,-216.35"/>
<polygon fill="black" stroke="black" points="1431.14,-219.57 1441.67,-220.8 1434.21,-213.28 1431.14,-219.57"/>
</g>
<!-- cirque_pinnacle_init&#45;&gt;RAP_Write -->
<g id="edge15" class="edge">
<title>cirque_pinnacle_init&#45;&gt;RAP_Write</title>
<path fill="none" stroke="black" d="M204.69,-282.57C360.23,-263.71 705.16,-224.64 997.12,-211 1148.9,-203.91 1187.99,-194.15 1338.99,-211 1360.97,-213.45 1384.81,-218.37 1405.37,-223.34"/>
<polygon fill="black" stroke="black" points="1404.63,-226.76 1415.18,-225.77 1406.32,-219.97 1404.63,-226.76"/>
</g>
<!-- cirque_pinnacle_init&#45;&gt;RAP_Write -->
<g id="edge16" class="edge">
<title>cirque_pinnacle_init&#45;&gt;RAP_Write</title>
<path fill="none" stroke="black" d="M223.5,-291.62C386.74,-278.74 716.41,-242.11 997.12,-229 1148.9,-221.91 1187.99,-212.15 1338.99,-229 1355.53,-230.85 1373.13,-234.09 1389.58,-237.18"/>
<polygon fill="black" stroke="black" points="1389.19,-240.67 1399.67,-239.08 1390.48,-233.79 1389.19,-240.67"/>
</g>
<!-- cirque_pinnacle_init&#45;&gt;RAP_Write -->
<g id="edge17" class="edge">
<title>cirque_pinnacle_init&#45;&gt;RAP_Write</title>
<path fill="none" stroke="black" d="M204.08,-303.54C359.33,-299.81 704.78,-260.65 997.12,-247 1148.9,-239.91 1187.99,-230.15 1338.99,-247 1373.66,-250.87 1412.96,-260.86 1436.72,-258.08"/>
<polygon fill="black" stroke="black" points="1437.83,-261.41 1446.76,-255.72 1436.22,-254.6 1437.83,-261.41"/>
</g>
<!-- wait_ms -->
<g id="node13" class="node">
<title>wait_ms</title>
<ellipse fill="none" stroke="black" cx="464.96" cy="-358" rx="48.99" ry="18"/>
<text text-anchor="middle" x="464.96" y="-354.3" font-family="Times,serif" font-size="14.00">wait_ms</text>
</g>
<!-- cirque_pinnacle_init&#45;&gt;wait_ms -->
<g id="edge11" class="edge">
<title>cirque_pinnacle_init&#45;&gt;wait_ms</title>
<path fill="none" stroke="black" d="M184.94,-307.15C212.97,-313.22 246.31,-320.22 276.48,-326 321.24,-334.57 372.23,-343.2 409.73,-349.34"/>
<polygon fill="black" stroke="black" points="409.5,-352.85 419.93,-351 410.62,-345.94 409.5,-352.85"/>
</g>
<!-- cirque_pinnacle_init&#45;&gt;wait_us -->
<g id="edge13" class="edge">
<title>cirque_pinnacle_init&#45;&gt;wait_us</title>
<path fill="none" stroke="black" d="M122.16,-311.01C127.82,-413.72 161.51,-924.07 276.48,-1017 460.55,-1165.79 1112.52,-1011.78 1338.99,-943 1366.98,-934.5 1397.38,-921.73 1420.51,-911.22"/>
<polygon fill="black" stroke="black" points="1422.01,-914.38 1429.63,-907.02 1419.08,-908.02 1422.01,-914.38"/>
</g>
<!-- cirque_pinnacle_set_adc_attenuation -->
<g id="node15" class="node">
<title>cirque_pinnacle_set_adc_attenuation</title>
<ellipse fill="none" stroke="black" cx="464.96" cy="-421" rx="180.87" ry="18"/>
<text text-anchor="middle" x="464.96" y="-417.3" font-family="Times,serif" font-size="14.00">cirque_pinnacle_set_adc_attenuation</text>
</g>
<!-- cirque_pinnacle_init&#45;&gt;cirque_pinnacle_set_adc_attenuation -->
<g id="edge18" class="edge">
<title>cirque_pinnacle_init&#45;&gt;cirque_pinnacle_set_adc_attenuation</title>
<path fill="none" stroke="black" d="M144.91,-310.6C174.26,-331.54 226.53,-366.07 276.48,-385 298.17,-393.22 322.02,-399.64 345.22,-404.63"/>
<polygon fill="black" stroke="black" points="344.62,-408.08 355.12,-406.68 346.04,-401.22 344.62,-408.08"/>
</g>
<!-- cirque_pinnacle_calibrate -->
<g id="node16" class="node">
<title>cirque_pinnacle_calibrate</title>
<ellipse fill="none" stroke="black" cx="825.28" cy="-704" rx="128.88" ry="18"/>
<text text-anchor="middle" x="825.28" y="-700.3" font-family="Times,serif" font-size="14.00">cirque_pinnacle_calibrate</text>
</g>
<!-- cirque_pinnacle_init&#45;&gt;cirque_pinnacle_calibrate -->
<g id="edge19" class="edge">
<title>cirque_pinnacle_init&#45;&gt;cirque_pinnacle_calibrate</title>
<path fill="none" stroke="black" d="M129.65,-311.17C149.52,-352.29 203.29,-453.36 276.48,-511 410.99,-616.93 608.07,-667.25 725.54,-689.12"/>
<polygon fill="black" stroke="black" points="725.13,-692.61 735.6,-690.96 726.39,-685.72 725.13,-692.61"/>
</g>
<!-- cirque_pinnacle_enable_feed -->
<g id="node17" class="node">
<title>cirque_pinnacle_enable_feed</title>
<ellipse fill="none" stroke="black" cx="1168.06" cy="-328" rx="142.97" ry="18"/>
<text text-anchor="middle" x="1168.06" y="-324.3" font-family="Times,serif" font-size="14.00">cirque_pinnacle_enable_feed</text>
</g>
<!-- cirque_pinnacle_init&#45;&gt;cirque_pinnacle_enable_feed -->
<g id="edge20" class="edge">
<title>cirque_pinnacle_init&#45;&gt;cirque_pinnacle_enable_feed</title>
<path fill="none" stroke="black" d="M221.99,-296.37C407.44,-302.58 803.56,-315.83 1019.4,-323.06"/>
<polygon fill="black" stroke="black" points="1019.43,-326.56 1029.54,-323.4 1019.67,-319.57 1019.43,-326.56"/>
</g>
<!-- cirque_pinnacle_connected -->
<g id="node18" class="node">
<title>cirque_pinnacle_connected</title>
<ellipse fill="none" stroke="black" cx="1168.06" cy="-274" rx="135.38" ry="18"/>
<text text-anchor="middle" x="1168.06" y="-270.3" font-family="Times,serif" font-size="14.00">cirque_pinnacle_connected</text>
</g>
<!-- cirque_pinnacle_init&#45;&gt;cirque_pinnacle_connected -->
<g id="edge21" class="edge">
<title>cirque_pinnacle_init&#45;&gt;cirque_pinnacle_connected</title>
<path fill="none" stroke="black" d="M223.42,-291.14C410.75,-287.74 809.54,-280.5 1023.82,-276.6"/>
<polygon fill="black" stroke="black" points="1023.94,-280.1 1033.88,-276.42 1023.82,-273.1 1023.94,-280.1"/>
</g>
<!-- ERA_ReadBytes -->
<g id="node23" class="node">
<title>ERA_ReadBytes</title>
<ellipse fill="none" stroke="black" cx="825.28" cy="-484" rx="85.29" ry="18"/>
<text text-anchor="middle" x="825.28" y="-480.3" font-family="Times,serif" font-size="14.00">ERA_ReadBytes</text>
</g>
<!-- cirque_pinnacle_set_adc_attenuation&#45;&gt;ERA_ReadBytes -->
<g id="edge40" class="edge">
<title>cirque_pinnacle_set_adc_attenuation&#45;&gt;ERA_ReadBytes</title>
<path fill="none" stroke="black" d="M580.82,-434.85C640.95,-444.63 712.23,-457.53 762.07,-467.8"/>
<polygon fill="black" stroke="black" points="761.55,-471.27 772.05,-469.88 762.98,-464.41 761.55,-471.27"/>
</g>
<!-- cirque_pinnacle_set_adc_attenuation&#45;&gt;ERA_ReadBytes -->
<g id="edge42" class="edge">
<title>cirque_pinnacle_set_adc_attenuation&#45;&gt;ERA_ReadBytes</title>
<path fill="none" stroke="black" d="M531.27,-437.83C589.32,-449.72 674.62,-464.88 738.23,-474.73"/>
<polygon fill="black" stroke="black" points="737.83,-478.21 748.24,-476.27 738.89,-471.29 737.83,-478.21"/>
</g>
<!-- ERA_WriteByte -->
<g id="node24" class="node">
<title>ERA_WriteByte</title>
<ellipse fill="none" stroke="black" cx="825.28" cy="-374" rx="81.79" ry="18"/>
<text text-anchor="middle" x="825.28" y="-370.3" font-family="Times,serif" font-size="14.00">ERA_WriteByte</text>
</g>
<!-- cirque_pinnacle_set_adc_attenuation&#45;&gt;ERA_WriteByte -->
<g id="edge41" class="edge">
<title>cirque_pinnacle_set_adc_attenuation&#45;&gt;ERA_WriteByte</title>
<path fill="none" stroke="black" d="M574.93,-406.71C629.54,-399.54 694.48,-391.03 744.4,-384.48"/>
<polygon fill="black" stroke="black" points="745.04,-387.92 754.5,-383.15 744.13,-380.98 745.04,-387.92"/>
</g>
<!-- cirque_pinnacle_calibrate&#45;&gt;RAP_ReadBytes -->
<g id="edge28" class="edge">
<title>cirque_pinnacle_calibrate&#45;&gt;RAP_ReadBytes</title>
<path fill="none" stroke="black" d="M868.01,-721.02C959.23,-761.23 1180.86,-851.23 1338.99,-768 1394.95,-738.54 1429.77,-669.73 1446.51,-630.76"/>
<polygon fill="black" stroke="black" points="1449.93,-631.66 1450.57,-621.08 1443.48,-628.95 1449.93,-631.66"/>
</g>
<!-- cirque_pinnacle_calibrate&#45;&gt;RAP_ReadBytes -->
<g id="edge31" class="edge">
<title>cirque_pinnacle_calibrate&#45;&gt;RAP_ReadBytes</title>
<path fill="none" stroke="black" d="M851.84,-721.64C929.97,-766.71 1170.52,-874.68 1338.99,-786 1400.53,-753.61 1436.5,-673.61 1450.99,-630.73"/>
<polygon fill="black" stroke="black" points="1454.33,-631.77 1454.06,-621.18 1447.67,-629.63 1454.33,-631.77"/>
</g>
<!-- cirque_pinnacle_calibrate&#45;&gt;cirque_pinnacle_clear_flags -->
<g id="edge33" class="edge">
<title>cirque_pinnacle_calibrate&#45;&gt;cirque_pinnacle_clear_flags</title>
<path fill="none" stroke="black" d="M918.5,-716.45C962.76,-722.42 1016,-729.61 1061.83,-735.8"/>
<polygon fill="black" stroke="black" points="1061.42,-739.27 1071.79,-737.14 1062.35,-732.33 1061.42,-739.27"/>
</g>
<!-- cirque_pinnacle_calibrate&#45;&gt;RAP_Write -->
<g id="edge29" class="edge">
<title>cirque_pinnacle_calibrate&#45;&gt;RAP_Write</title>
<path fill="none" stroke="black" d="M931.18,-714.23C1062.7,-724.71 1278.32,-733.39 1338.99,-685 1347.49,-678.22 1427.17,-362.83 1451.48,-265.98"/>
<polygon fill="black" stroke="black" points="1454.93,-266.59 1453.97,-256.04 1448.14,-264.89 1454.93,-266.59"/>
</g>
<!-- timer_read -->
<g id="node20" class="node">
<title>timer_read</title>
<ellipse fill="none" stroke="black" cx="1168.06" cy="-658" rx="61.99" ry="18"/>
<text text-anchor="middle" x="1168.06" y="-654.3" font-family="Times,serif" font-size="14.00">timer_read</text>
</g>
<!-- cirque_pinnacle_calibrate&#45;&gt;timer_read -->
<g id="edge30" class="edge">
<title>cirque_pinnacle_calibrate&#45;&gt;timer_read</title>
<path fill="none" stroke="black" d="M918.5,-691.55C976.34,-683.74 1049.52,-673.87 1101.47,-666.85"/>
<polygon fill="black" stroke="black" points="1102.12,-670.3 1111.56,-665.49 1101.18,-663.36 1102.12,-670.3"/>
</g>
<!-- timer_elapsed -->
<g id="node21" class="node">
<title>timer_elapsed</title>
<ellipse fill="none" stroke="black" cx="1168.06" cy="-420" rx="76.09" ry="18"/>
<text text-anchor="middle" x="1168.06" y="-416.3" font-family="Times,serif" font-size="14.00">timer_elapsed</text>
</g>
<!-- cirque_pinnacle_calibrate&#45;&gt;timer_elapsed -->
<g id="edge32" class="edge">
<title>cirque_pinnacle_calibrate&#45;&gt;timer_elapsed</title>
<path fill="none" stroke="black" d="M934.71,-694.32C944.45,-690.05 953.5,-684.4 961.12,-677 1012.16,-627.42 955.16,-578.47 997.12,-521 1026.04,-481.39 1075.62,-454.53 1113.78,-438.53"/>
<polygon fill="black" stroke="black" points="1115.28,-441.7 1123.22,-434.7 1112.64,-435.22 1115.28,-441.7"/>
</g>
<!-- cirque_pinnacle_enable_feed&#45;&gt;RAP_ReadBytes -->
<g id="edge61" class="edge">
<title>cirque_pinnacle_enable_feed&#45;&gt;RAP_ReadBytes</title>
<path fill="none" stroke="black" d="M1292.34,-337.04C1309.11,-342.19 1325.25,-349.55 1338.99,-360 1410.62,-414.45 1441.93,-523.3 1453.18,-574.78"/>
<polygon fill="black" stroke="black" points="1449.81,-575.78 1455.28,-584.85 1456.66,-574.35 1449.81,-575.78"/>
</g>
<!-- cirque_pinnacle_enable_feed&#45;&gt;RAP_Write -->
<g id="edge62" class="edge">
<title>cirque_pinnacle_enable_feed&#45;&gt;RAP_Write</title>
<path fill="none" stroke="black" d="M1277.3,-316.25C1298.07,-312.47 1319.43,-307.51 1338.99,-301 1369.44,-290.86 1401.48,-273.56 1424.71,-259.65"/>
<polygon fill="black" stroke="black" points="1426.75,-262.51 1433.47,-254.32 1423.1,-256.53 1426.75,-262.51"/>
</g>
<!-- cirque_pinnacle_connected&#45;&gt;RAP_ReadBytes -->
<g id="edge22" class="edge">
<title>cirque_pinnacle_connected&#45;&gt;RAP_ReadBytes</title>
<path fill="none" stroke="black" d="M1302.86,-272.4C1315.91,-277.03 1328.27,-283.4 1338.99,-292 1428.42,-363.7 1451.17,-511.97 1456.75,-574.49"/>
<polygon fill="black" stroke="black" points="1453.28,-575.1 1457.58,-584.79 1460.26,-574.54 1453.28,-575.1"/>
</g>
<!-- cirque_pinnacle_connected&#45;&gt;RAP_ReadBytes -->
<g id="edge24" class="edge">
<title>cirque_pinnacle_connected&#45;&gt;RAP_ReadBytes</title>
<path fill="none" stroke="black" d="M1281.1,-283.94C1302,-288.75 1322.44,-296.73 1338.99,-310 1423.89,-378.07 1448.69,-515.14 1455.76,-574.63"/>
<polygon fill="black" stroke="black" points="1452.31,-575.25 1456.88,-584.81 1459.26,-574.48 1452.31,-575.25"/>
</g>
<!-- cirque_pinnacle_connected&#45;&gt;RAP_Write -->
<g id="edge23" class="edge">
<title>cirque_pinnacle_connected&#45;&gt;RAP_Write</title>
<path fill="none" stroke="black" d="M1242.46,-258.91C1287.68,-252.2 1345.27,-245.07 1389.62,-240.72"/>
<polygon fill="black" stroke="black" points="1390.1,-244.19 1399.73,-239.75 1389.44,-237.22 1390.1,-244.19"/>
</g>
<!-- cirque_pinnacle_connected&#45;&gt;RAP_Write -->
<g id="edge25" class="edge">
<title>cirque_pinnacle_connected&#45;&gt;RAP_Write</title>
<path fill="none" stroke="black" d="M1288.45,-265.81C1327.65,-261.22 1369.41,-255.64 1401.74,-250.55"/>
<polygon fill="black" stroke="black" points="1402.57,-253.96 1411.88,-248.91 1401.45,-247.05 1402.57,-253.96"/>
</g>
<!-- cirque_pinnacle_cursor_smoothing -->
<g id="node19" class="node">
<title>cirque_pinnacle_cursor_smoothing</title>
<ellipse fill="none" stroke="black" cx="1168.06" cy="-548" rx="170.87" ry="18"/>
<text text-anchor="middle" x="1168.06" y="-544.3" font-family="Times,serif" font-size="14.00">cirque_pinnacle_cursor_smoothing</text>
</g>
<!-- cirque_pinnacle_cursor_smoothing&#45;&gt;RAP_ReadBytes -->
<g id="edge26" class="edge">
<title>cirque_pinnacle_cursor_smoothing&#45;&gt;RAP_ReadBytes</title>
<path fill="none" stroke="black" d="M1252.91,-563.72C1280.35,-568.88 1310.97,-574.67 1338.99,-580 1354.23,-582.9 1370.55,-586.03 1386.09,-589.02"/>
<polygon fill="black" stroke="black" points="1385.68,-592.5 1396.17,-590.96 1387.01,-585.63 1385.68,-592.5"/>
</g>
<!-- cirque_pinnacle_cursor_smoothing&#45;&gt;RAP_Write -->
<g id="edge27" class="edge">
<title>cirque_pinnacle_cursor_smoothing&#45;&gt;RAP_Write</title>
<path fill="none" stroke="black" d="M1301.46,-536.64C1315.01,-531.63 1327.86,-524.92 1338.99,-516 1419.29,-451.66 1446.67,-323.03 1455.09,-266.15"/>
<polygon fill="black" stroke="black" points="1458.58,-266.47 1456.5,-256.09 1451.65,-265.51 1458.58,-266.47"/>
</g>
<!-- cirque_pinnacle_tune_edge_sensitivity -->
<g id="node22" class="node">
<title>cirque_pinnacle_tune_edge_sensitivity</title>
<ellipse fill="none" stroke="black" cx="464.96" cy="-484" rx="188.47" ry="18"/>
<text text-anchor="middle" x="464.96" y="-480.3" font-family="Times,serif" font-size="14.00">cirque_pinnacle_tune_edge_sensitivity</text>
</g>
<!-- cirque_pinnacle_tune_edge_sensitivity&#45;&gt;ERA_ReadBytes -->
<g id="edge34" class="edge">
<title>cirque_pinnacle_tune_edge_sensitivity&#45;&gt;ERA_ReadBytes</title>
<path fill="none" stroke="black" d="M538.04,-467.39C604.64,-462.2 702.41,-462.56 764.7,-468.46"/>
<polygon fill="black" stroke="black" points="764.45,-471.95 774.76,-469.5 765.17,-464.99 764.45,-471.95"/>
</g>
<!-- cirque_pinnacle_tune_edge_sensitivity&#45;&gt;ERA_ReadBytes -->
<g id="edge36" class="edge">
<title>cirque_pinnacle_tune_edge_sensitivity&#45;&gt;ERA_ReadBytes</title>
<path fill="none" stroke="black" d="M639.87,-477.25C672.57,-477.22 705.5,-477.49 734.31,-478.06"/>
<polygon fill="black" stroke="black" points="734.24,-481.56 744.32,-478.27 734.39,-474.56 734.24,-481.56"/>
</g>
<!-- cirque_pinnacle_tune_edge_sensitivity&#45;&gt;ERA_ReadBytes -->
<g id="edge37" class="edge">
<title>cirque_pinnacle_tune_edge_sensitivity&#45;&gt;ERA_ReadBytes</title>
<path fill="none" stroke="black" d="M639.87,-490.75C672.57,-490.78 705.5,-490.51 734.31,-489.94"/>
<polygon fill="black" stroke="black" points="734.39,-493.44 744.32,-489.73 734.24,-486.44 734.39,-493.44"/>
</g>
<!-- cirque_pinnacle_tune_edge_sensitivity&#45;&gt;ERA_ReadBytes -->
<g id="edge39" class="edge">
<title>cirque_pinnacle_tune_edge_sensitivity&#45;&gt;ERA_ReadBytes</title>
<path fill="none" stroke="black" d="M538.04,-500.61C604.64,-505.8 702.41,-505.44 764.7,-499.54"/>
<polygon fill="black" stroke="black" points="765.17,-503.01 774.76,-498.5 764.45,-496.05 765.17,-503.01"/>
</g>
<!-- cirque_pinnacle_tune_edge_sensitivity&#45;&gt;ERA_WriteByte -->
<g id="edge35" class="edge">
<title>cirque_pinnacle_tune_edge_sensitivity&#45;&gt;ERA_WriteByte</title>
<path fill="none" stroke="black" d="M570.16,-469.01C598.72,-463.37 628.63,-454.33 653.45,-439 675.83,-425.17 667.12,-405.92 689.45,-392 702.95,-383.58 718.57,-377.72 734.28,-373.8"/>
<polygon fill="black" stroke="black" points="735.06,-377.22 744.05,-371.62 733.53,-370.39 735.06,-377.22"/>
</g>
<!-- cirque_pinnacle_tune_edge_sensitivity&#45;&gt;ERA_WriteByte -->
<g id="edge38" class="edge">
<title>cirque_pinnacle_tune_edge_sensitivity&#45;&gt;ERA_WriteByte</title>
<path fill="none" stroke="black" d="M618.97,-473.52C631.07,-469.07 642.73,-463.62 653.45,-457 675.83,-443.17 667.12,-423.92 689.45,-410 708.07,-398.39 730.71,-391.64 752.08,-387.33"/>
<polygon fill="black" stroke="black" points="752.92,-390.73 762.11,-385.46 751.64,-383.85 752.92,-390.73"/>
</g>
<!-- ERA_ReadBytes&#45;&gt;RAP_ReadBytes -->
<g id="edge57" class="edge">
<title>ERA_ReadBytes&#45;&gt;RAP_ReadBytes</title>
<path fill="none" stroke="black" d="M859.76,-500.57C892.92,-520.3 946.02,-551.58 997.12,-566 1120.81,-600.9 1270.32,-603.09 1364.93,-602.04"/>
<polygon fill="black" stroke="black" points="1365.09,-605.54 1375.04,-601.92 1365,-598.54 1365.09,-605.54"/>
</g>
<!-- ERA_ReadBytes&#45;&gt;RAP_ReadBytes -->
<g id="edge59" class="edge">
<title>ERA_ReadBytes&#45;&gt;RAP_ReadBytes</title>
<path fill="none" stroke="black" d="M843.17,-501.65C872.69,-525.81 936.32,-566.84 997.12,-584 1128.32,-621.02 1288.56,-621.24 1381.52,-614.56"/>
<polygon fill="black" stroke="black" points="1381.98,-618.04 1391.69,-613.79 1381.45,-611.06 1381.98,-618.04"/>
</g>
<!-- ERA_ReadBytes&#45;&gt;cirque_pinnacle_clear_flags -->
<g id="edge60" class="edge">
<title>ERA_ReadBytes&#45;&gt;cirque_pinnacle_clear_flags</title>
<path fill="none" stroke="black" d="M846.15,-501.56C873.92,-526.73 924.99,-575.29 961.12,-623 980.36,-648.4 972.85,-664.35 997.12,-685 1022.63,-706.7 1056.15,-721.58 1086.68,-731.56"/>
<polygon fill="black" stroke="black" points="1085.89,-734.98 1096.48,-734.63 1087.98,-728.3 1085.89,-734.98"/>
</g>
<!-- ERA_ReadBytes&#45;&gt;RAP_Write -->
<g id="edge53" class="edge">
<title>ERA_ReadBytes&#45;&gt;RAP_Write</title>
<path fill="none" stroke="black" d="M908.55,-488.01C1016.3,-498.97 1207,-512.07 1338.99,-429 1399.9,-390.66 1432.93,-309.34 1448.03,-265.68"/>
<polygon fill="black" stroke="black" points="1451.44,-266.54 1451.32,-255.95 1444.81,-264.3 1451.44,-266.54"/>
</g>
<!-- ERA_ReadBytes&#45;&gt;RAP_Write -->
<g id="edge54" class="edge">
<title>ERA_ReadBytes&#45;&gt;RAP_Write</title>
<path fill="none" stroke="black" d="M886.35,-496.61C988.17,-514.55 1197.37,-536.13 1338.99,-447 1405.42,-405.19 1438.69,-312.25 1451.7,-265.7"/>
<polygon fill="black" stroke="black" points="1455.1,-266.54 1454.31,-255.97 1448.34,-264.72 1455.1,-266.54"/>
</g>
<!-- ERA_ReadBytes&#45;&gt;RAP_Write -->
<g id="edge55" class="edge">
<title>ERA_ReadBytes&#45;&gt;RAP_Write</title>
<path fill="none" stroke="black" d="M860.47,-500.44C947.95,-527.47 1183.97,-562.57 1338.99,-465 1409.99,-420.31 1443.11,-317.21 1454.11,-266.1"/>
<polygon fill="black" stroke="black" points="1457.59,-266.51 1456.12,-256.02 1450.73,-265.14 1457.59,-266.51"/>
</g>
<!-- ERA_ReadBytes&#45;&gt;cirque_pinnacle_enable_feed -->
<g id="edge52" class="edge">
<title>ERA_ReadBytes&#45;&gt;cirque_pinnacle_enable_feed</title>
<path fill="none" stroke="black" d="M906.11,-478.09C925.45,-473.75 945.14,-466.61 961.12,-455 986.9,-436.27 972.85,-413.65 997.12,-393 1022.41,-371.48 1055.58,-356.67 1085.9,-346.7"/>
<polygon fill="black" stroke="black" points="1087.15,-349.97 1095.63,-343.62 1085.04,-343.3 1087.15,-349.97"/>
</g>
<!-- ERA_ReadBytes&#45;&gt;timer_read -->
<g id="edge56" class="edge">
<title>ERA_ReadBytes&#45;&gt;timer_read</title>
<path fill="none" stroke="black" d="M841.71,-501.71C869.48,-532.36 931.17,-594.97 997.12,-626 1028.25,-640.65 1065.56,-648.59 1097.28,-652.9"/>
<polygon fill="black" stroke="black" points="1097.01,-656.4 1107.37,-654.18 1097.89,-649.45 1097.01,-656.4"/>
</g>
<!-- ERA_ReadBytes&#45;&gt;timer_elapsed -->
<g id="edge58" class="edge">
<title>ERA_ReadBytes&#45;&gt;timer_elapsed</title>
<path fill="none" stroke="black" d="M889.58,-472.11C948.84,-460.98 1037.15,-444.4 1098.16,-432.94"/>
<polygon fill="black" stroke="black" points="1098.9,-436.36 1108.09,-431.08 1097.61,-429.48 1098.9,-436.36"/>
</g>
<!-- ERA_WriteByte&#45;&gt;RAP_ReadBytes -->
<g id="edge49" class="edge">
<title>ERA_WriteByte&#45;&gt;RAP_ReadBytes</title>
<path fill="none" stroke="black" d="M902.68,-367.97C1027.35,-359.56 1267.83,-349.84 1338.99,-393 1406.34,-433.86 1439.18,-527.78 1451.9,-574.93"/>
<polygon fill="black" stroke="black" points="1448.56,-575.97 1454.45,-584.78 1455.33,-574.22 1448.56,-575.97"/>
</g>
<!-- ERA_WriteByte&#45;&gt;cirque_pinnacle_clear_flags -->
<g id="edge51" class="edge">
<title>ERA_WriteByte&#45;&gt;cirque_pinnacle_clear_flags</title>
<path fill="none" stroke="black" d="M907.19,-374.02C927.32,-377.99 947.13,-385.97 961.12,-401 1047.81,-494.13 918.53,-584.94 997.12,-685 1015.45,-708.33 1043.2,-723.29 1071,-732.89"/>
<polygon fill="black" stroke="black" points="1070.22,-736.31 1080.82,-736.06 1072.38,-729.65 1070.22,-736.31"/>
</g>
<!-- ERA_WriteByte&#45;&gt;RAP_Write -->
<g id="edge44" class="edge">
<title>ERA_WriteByte&#45;&gt;RAP_Write</title>
<path fill="none" stroke="black" d="M832.38,-355.97C852.86,-317.48 922.11,-245.64 997.12,-220 1149.47,-167.92 1346.96,-192.07 1424.82,-217.91"/>
<polygon fill="black" stroke="black" points="1423.97,-221.33 1434.57,-221.4 1426.33,-214.74 1423.97,-221.33"/>
</g>
<!-- ERA_WriteByte&#45;&gt;RAP_Write -->
<g id="edge45" class="edge">
<title>ERA_WriteByte&#45;&gt;RAP_Write</title>
<path fill="none" stroke="black" d="M837.95,-356.21C863.55,-324.7 927.88,-261.67 997.12,-238 1138.58,-189.64 1318.96,-207 1406.35,-223.45"/>
<polygon fill="black" stroke="black" points="1405.8,-226.91 1416.29,-225.4 1407.14,-220.04 1405.8,-226.91"/>
</g>
<!-- ERA_WriteByte&#45;&gt;RAP_Write -->
<g id="edge46" class="edge">
<title>ERA_WriteByte&#45;&gt;RAP_Write</title>
<path fill="none" stroke="black" d="M848.13,-356.55C878.23,-328.88 935.75,-276.98 997.12,-256 1130.83,-210.29 1299.31,-223.3 1391.17,-232.86"/>
<polygon fill="black" stroke="black" points="1390.86,-236.35 1401.17,-233.92 1391.6,-229.39 1390.86,-236.35"/>
</g>
<!-- ERA_WriteByte&#45;&gt;RAP_Write -->
<g id="edge47" class="edge">
<title>ERA_WriteByte&#45;&gt;RAP_Write</title>
<path fill="none" stroke="black" d="M862.6,-357.75C894.7,-332.72 944.49,-291.99 997.12,-274 1132.52,-227.71 1303.58,-241.64 1394.62,-245.11"/>
<polygon fill="black" stroke="black" points="1394.66,-248.62 1404.78,-245.46 1394.91,-241.62 1394.66,-248.62"/>
</g>
<!-- ERA_WriteByte&#45;&gt;cirque_pinnacle_enable_feed -->
<g id="edge43" class="edge">
<title>ERA_WriteByte&#45;&gt;cirque_pinnacle_enable_feed</title>
<path fill="none" stroke="black" d="M895.65,-364.64C942.73,-358.28 1005.91,-349.75 1059.46,-342.52"/>
<polygon fill="black" stroke="black" points="1060.25,-345.95 1069.69,-341.14 1059.31,-339.01 1060.25,-345.95"/>
</g>
<!-- ERA_WriteByte&#45;&gt;timer_read -->
<g id="edge48" class="edge">
<title>ERA_WriteByte&#45;&gt;timer_read</title>
<path fill="none" stroke="black" d="M907.13,-374.9C927.03,-378.91 946.73,-386.7 961.12,-401 1017.14,-456.66 948.69,-512.62 997.12,-575 1024.76,-610.59 1071.6,-631.87 1109.11,-643.96"/>
<polygon fill="black" stroke="black" points="1108.34,-647.39 1118.93,-646.99 1110.4,-640.7 1108.34,-647.39"/>
</g>
<!-- ERA_WriteByte&#45;&gt;timer_elapsed -->
<g id="edge50" class="edge">
<title>ERA_WriteByte&#45;&gt;timer_elapsed</title>
<path fill="none" stroke="black" d="M895.65,-383.36C952.59,-391.05 1033.08,-401.91 1091.61,-409.82"/>
<polygon fill="black" stroke="black" points="1091.16,-413.29 1101.54,-411.16 1092.1,-406.35 1091.16,-413.29"/>
</g>
<!-- timer_elapsed_fast -->
<g id="node26" class="node">
<title>timer_elapsed_fast</title>
<ellipse fill="none" stroke="black" cx="825.28" cy="-428" rx="98.28" ry="18"/>
<text text-anchor="middle" x="825.28" y="-424.3" font-family="Times,serif" font-size="14.00">timer_elapsed_fast</text>
</g>
<!-- timer_elapsed_fast&#45;&gt;timer_elapsed -->
<g id="edge66" class="edge">
<title>timer_elapsed_fast&#45;&gt;timer_elapsed</title>
<path fill="none" stroke="black" d="M923.02,-425.73C973.17,-424.55 1033.87,-423.13 1082.18,-421.99"/>
<polygon fill="black" stroke="black" points="1082.38,-425.49 1092.29,-421.76 1082.21,-418.49 1082.38,-425.49"/>
</g>
<!-- timer_read_fast -->
<g id="node27" class="node">
<title>timer_read_fast</title>
<ellipse fill="none" stroke="black" cx="825.28" cy="-650" rx="83.39" ry="18"/>
<text text-anchor="middle" x="825.28" y="-646.3" font-family="Times,serif" font-size="14.00">timer_read_fast</text>
</g>
<!-- timer_read_fast&#45;&gt;timer_read -->
<g id="edge67" class="edge">
<title>timer_read_fast&#45;&gt;timer_read</title>
<path fill="none" stroke="black" d="M908.34,-651.93C965.6,-653.27 1041.26,-655.05 1095.96,-656.33"/>
<polygon fill="black" stroke="black" points="1096.18,-659.84 1106.26,-656.57 1096.35,-652.84 1096.18,-659.84"/>
</g>
</g>
</svg>
