<?xml version="1.0" encoding="UTF-8" standalone="no"?>
<!DOCTYPE svg PUBLIC "-//W3C//DTD SVG 1.1//EN"
 "http://www.w3.org/Graphics/SVG/1.1/DTD/svg11.dtd">
<!-- Generated by graphviz version 2.43.0 (0)
 -->
<!-- Title: G Pages: 1 -->
<svg width="898pt" height="422pt"
 viewBox="0.00 0.00 897.63 422.00" xmlns="http://www.w3.org/2000/svg" xmlns:xlink="http://www.w3.org/1999/xlink">
<g id="graph0" class="graph" transform="scale(1 1) rotate(0) translate(4 418)">
<title>G</title>
<polygon fill="white" stroke="transparent" points="-4,4 -4,-418 893.63,-418 893.63,4 -4,4"/>
<!-- pimoroni_trackball_get_report -->
<g id="node1" class="node">
<title>pimoroni_trackball_get_report</title>
<ellipse fill="none" stroke="black" cx="151.44" cy="-72" rx="150.57" ry="18"/>
<text text-anchor="middle" x="151.44" y="-68.3" font-family="Times,serif" font-size="14.00">pimoroni_trackball_get_report</text>
</g>
<!-- read_pimoroni_trackball -->
<g id="node2" class="node">
<title>read_pimoroni_trackball</title>
<ellipse fill="none" stroke="black" cx="501.36" cy="-180" rx="122.68" ry="18"/>
<text text-anchor="middle" x="501.36" y="-176.3" font-family="Times,serif" font-size="14.00">read_pimoroni_trackball</text>
</g>
<!-- pimoroni_trackball_get_report&#45;&gt;read_pimoroni_trackball -->
<g id="edge1" class="edge">
<title>pimoroni_trackball_get_report&#45;&gt;read_pimoroni_trackball</title>
<path fill="none" stroke="black" d="M186.2,-89.67C222.84,-108.13 283.55,-136.62 338.87,-153 357.53,-158.52 377.75,-163.02 397.36,-166.65"/>
<polygon fill="black" stroke="black" points="396.79,-170.1 407.25,-168.41 398.02,-163.21 396.79,-170.1"/>
</g>
<!-- pointing_device_handle_buttons -->
<g id="node3" class="node">
<title>pointing_device_handle_buttons</title>
<ellipse fill="none" stroke="black" cx="501.36" cy="-126" rx="159.47" ry="18"/>
<text text-anchor="middle" x="501.36" y="-122.3" font-family="Times,serif" font-size="14.00">pointing_device_handle_buttons</text>
</g>
<!-- pimoroni_trackball_get_report&#45;&gt;pointing_device_handle_buttons -->
<g id="edge2" class="edge">
<title>pimoroni_trackball_get_report&#45;&gt;pointing_device_handle_buttons</title>
<path fill="none" stroke="black" d="M267.81,-83.51C318.19,-90.7 376.01,-99.89 421.39,-107.98"/>
<polygon fill="black" stroke="black" points="421,-111.47 431.46,-109.8 422.24,-104.58 421,-111.47"/>
</g>
<!-- pimoroni_trackball_get_report&#45;&gt;pointing_device_handle_buttons -->
<g id="edge7" class="edge">
<title>pimoroni_trackball_get_report&#45;&gt;pointing_device_handle_buttons</title>
<path fill="none" stroke="black" d="M220.35,-88.02C263.36,-95.88 320.36,-105.09 371.7,-112.57"/>
<polygon fill="black" stroke="black" points="371.49,-116.08 381.89,-114.05 372.49,-109.15 371.49,-116.08"/>
</g>
<!-- pimoroni_trackball_get_offsets -->
<g id="node4" class="node">
<title>pimoroni_trackball_get_offsets</title>
<ellipse fill="none" stroke="black" cx="501.36" cy="-72" rx="152.17" ry="18"/>
<text text-anchor="middle" x="501.36" y="-68.3" font-family="Times,serif" font-size="14.00">pimoroni_trackball_get_offsets</text>
</g>
<!-- pimoroni_trackball_get_report&#45;&gt;pimoroni_trackball_get_offsets -->
<g id="edge3" class="edge">
<title>pimoroni_trackball_get_report&#45;&gt;pimoroni_trackball_get_offsets</title>
<path fill="none" stroke="black" d="M291.69,-65.37C310.78,-65.24 330.45,-65.21 349.73,-65.3"/>
<polygon fill="black" stroke="black" points="349.76,-68.8 359.78,-65.36 349.8,-61.8 349.76,-68.8"/>
</g>
<!-- pimoroni_trackball_get_report&#45;&gt;pimoroni_trackball_get_offsets -->
<g id="edge4" class="edge">
<title>pimoroni_trackball_get_report&#45;&gt;pimoroni_trackball_get_offsets</title>
<path fill="none" stroke="black" d="M291.69,-78.63C310.78,-78.76 330.45,-78.79 349.73,-78.7"/>
<polygon fill="black" stroke="black" points="349.8,-82.2 359.78,-78.64 349.76,-75.2 349.8,-82.2"/>
</g>
<!-- pimoroni_trackball_adapt_values -->
<g id="node5" class="node">
<title>pimoroni_trackball_adapt_values</title>
<ellipse fill="none" stroke="black" cx="501.36" cy="-18" rx="162.47" ry="18"/>
<text text-anchor="middle" x="501.36" y="-14.3" font-family="Times,serif" font-size="14.00">pimoroni_trackball_adapt_values</text>
</g>
<!-- pimoroni_trackball_get_report&#45;&gt;pimoroni_trackball_adapt_values -->
<g id="edge5" class="edge">
<title>pimoroni_trackball_get_report&#45;&gt;pimoroni_trackball_adapt_values</title>
<path fill="none" stroke="black" d="M220.35,-55.98C263.08,-48.17 319.62,-39.03 370.7,-31.57"/>
<polygon fill="black" stroke="black" points="371.44,-35 380.84,-30.1 370.44,-28.07 371.44,-35"/>
</g>
<!-- pimoroni_trackball_get_report&#45;&gt;pimoroni_trackball_adapt_values -->
<g id="edge6" class="edge">
<title>pimoroni_trackball_get_report&#45;&gt;pimoroni_trackball_adapt_values</title>
<path fill="none" stroke="black" d="M267.81,-60.49C318.1,-53.31 375.8,-44.15 421.14,-36.06"/>
<polygon fill="black" stroke="black" points="421.98,-39.47 431.2,-34.25 420.74,-32.58 421.98,-39.47"/>
</g>
<!-- i2c_read_register -->
<g id="node9" class="node">
<title>i2c_read_register</title>
<ellipse fill="none" stroke="black" cx="794.74" cy="-180" rx="90.98" ry="18"/>
<text text-anchor="middle" x="794.74" y="-176.3" font-family="Times,serif" font-size="14.00">i2c_read_register</text>
</g>
<!-- read_pimoroni_trackball&#45;&gt;i2c_read_register -->
<g id="edge10" class="edge">
<title>read_pimoroni_trackball&#45;&gt;i2c_read_register</title>
<path fill="none" stroke="black" d="M624.24,-180C647.23,-180 671.03,-180 693.28,-180"/>
<polygon fill="black" stroke="black" points="693.38,-183.5 703.38,-180 693.38,-176.5 693.38,-183.5"/>
</g>
<!-- pimoroni_trackball_device_init -->
<g id="node6" class="node">
<title>pimoroni_trackball_device_init</title>
<ellipse fill="none" stroke="black" cx="151.44" cy="-261" rx="151.37" ry="18"/>
<text text-anchor="middle" x="151.44" y="-257.3" font-family="Times,serif" font-size="14.00">pimoroni_trackball_device_init</text>
</g>
<!-- i2c_init -->
<g id="node7" class="node">
<title>i2c_init</title>
<ellipse fill="none" stroke="black" cx="501.36" cy="-288" rx="44.39" ry="18"/>
<text text-anchor="middle" x="501.36" y="-284.3" font-family="Times,serif" font-size="14.00">i2c_init</text>
</g>
<!-- pimoroni_trackball_device_init&#45;&gt;i2c_init -->
<g id="edge8" class="edge">
<title>pimoroni_trackball_device_init&#45;&gt;i2c_init</title>
<path fill="none" stroke="black" d="M279.03,-270.82C337.25,-275.34 403.14,-280.46 447.77,-283.92"/>
<polygon fill="black" stroke="black" points="447.56,-287.41 457.8,-284.7 448.1,-280.43 447.56,-287.41"/>
</g>
<!-- pimoroni_trackball_set_rgbw -->
<g id="node8" class="node">
<title>pimoroni_trackball_set_rgbw</title>
<ellipse fill="none" stroke="black" cx="501.36" cy="-234" rx="144.07" ry="18"/>
<text text-anchor="middle" x="501.36" y="-230.3" font-family="Times,serif" font-size="14.00">pimoroni_trackball_set_rgbw</text>
</g>
<!-- pimoroni_trackball_device_init&#45;&gt;pimoroni_trackball_set_rgbw -->
<g id="edge9" class="edge">
<title>pimoroni_trackball_device_init&#45;&gt;pimoroni_trackball_set_rgbw</title>
<path fill="none" stroke="black" d="M279.03,-251.18C308.05,-248.92 338.98,-246.52 368.24,-244.25"/>
<polygon fill="black" stroke="black" points="368.81,-247.72 378.51,-243.46 368.27,-240.74 368.81,-247.72"/>
</g>
<!-- i2c_write_register -->
<g id="node10" class="node">
<title>i2c_write_register</title>
<ellipse fill="none" stroke="black" cx="794.74" cy="-234" rx="94.78" ry="18"/>
<text text-anchor="middle" x="794.74" y="-230.3" font-family="Times,serif" font-size="14.00">i2c_write_register</text>
</g>
<!-- pimoroni_trackball_set_rgbw&#45;&gt;i2c_write_register -->
<g id="edge11" class="edge">
<title>pimoroni_trackball_set_rgbw&#45;&gt;i2c_write_register</title>
<path fill="none" stroke="black" d="M645.91,-234C660.59,-234 675.3,-234 689.44,-234"/>
<polygon fill="black" stroke="black" points="689.63,-237.5 699.63,-234 689.63,-230.5 689.63,-237.5"/>
</g>
<!-- timer_elapsed_fast -->
<g id="node11" class="node">
<title>timer_elapsed_fast</title>
<ellipse fill="none" stroke="black" cx="151.44" cy="-342" rx="98.28" ry="18"/>
<text text-anchor="middle" x="151.44" y="-338.3" font-family="Times,serif" font-size="14.00">timer_elapsed_fast</text>
</g>
<!-- timer_elapsed -->
<g id="node12" class="node">
<title>timer_elapsed</title>
<ellipse fill="none" stroke="black" cx="501.36" cy="-342" rx="76.09" ry="18"/>
<text text-anchor="middle" x="501.36" y="-338.3" font-family="Times,serif" font-size="14.00">timer_elapsed</text>
</g>
<!-- timer_elapsed_fast&#45;&gt;timer_elapsed -->
<g id="edge12" class="edge">
<title>timer_elapsed_fast&#45;&gt;timer_elapsed</title>
<path fill="none" stroke="black" d="M249.81,-342C301.72,-342 365,-342 414.97,-342"/>
<polygon fill="black" stroke="black" points="415.1,-345.5 425.1,-342 415.1,-338.5 415.1,-345.5"/>
</g>
<!-- timer_read_fast -->
<g id="node13" class="node">
<title>timer_read_fast</title>
<ellipse fill="none" stroke="black" cx="151.44" cy="-396" rx="83.39" ry="18"/>
<text text-anchor="middle" x="151.44" y="-392.3" font-family="Times,serif" font-size="14.00">timer_read_fast</text>
</g>
<!-- timer_read -->
<g id="node14" class="node">
<title>timer_read</title>
<ellipse fill="none" stroke="black" cx="501.36" cy="-396" rx="61.99" ry="18"/>
<text text-anchor="middle" x="501.36" y="-392.3" font-family="Times,serif" font-size="14.00">timer_read</text>
</g>
<!-- timer_read_fast&#45;&gt;timer_read -->
<g id="edge13" class="edge">
<title>timer_read_fast&#45;&gt;timer_read</title>
<path fill="none" stroke="black" d="M234.89,-396C294.01,-396 372.83,-396 429.2,-396"/>
<polygon fill="black" stroke="black" points="429.46,-399.5 439.46,-396 429.46,-392.5 429.46,-399.5"/>
</g>
</g>
</svg>
