<?xml version="1.0" encoding="UTF-8" standalone="no"?>
<!DOCTYPE svg PUBLIC "-//W3C//DTD SVG 1.1//EN"
 "http://www.w3.org/Graphics/SVG/1.1/DTD/svg11.dtd">
<!-- Generated by graphviz version 13.1.0 (20250701.0955)
 -->
<!-- Title: G Pages: 1 -->
<svg width="761pt" height="422pt"
 viewBox="0.00 0.00 761.00 422.00" xmlns="http://www.w3.org/2000/svg" xmlns:xlink="http://www.w3.org/1999/xlink">
<g id="graph0" class="graph" transform="scale(1 1) rotate(0) translate(4 418)">
<title>G</title>
<polygon fill="white" stroke="none" points="-4,4 -4,-418 756.7,-418 756.7,4 -4,4"/>
<!-- pimoroni_trackball_get_report -->
<g id="node1" class="node">
<title>pimoroni_trackball_get_report</title>
<ellipse fill="none" stroke="black" cx="127.61" cy="-72" rx="124.54" ry="18"/>
<text xml:space="preserve" text-anchor="middle" x="127.61" y="-66.95" font-family="Times,serif" font-size="14.00">pimoroni_trackball_get_report</text>
</g>
<!-- read_pimoroni_trackball -->
<g id="node2" class="node">
<title>read_pimoroni_trackball</title>
<ellipse fill="none" stroke="black" cx="426" cy="-180" rx="102.53" ry="18"/>
<text xml:space="preserve" text-anchor="middle" x="426" y="-174.95" font-family="Times,serif" font-size="14.00">read_pimoroni_trackball</text>
</g>
<!-- pimoroni_trackball_get_report&#45;&gt;read_pimoroni_trackball -->
<g id="edge1" class="edge">
<title>pimoroni_trackball_get_report&#45;&gt;read_pimoroni_trackball</title>
<path fill="none" stroke="black" d="M158.44,-89.86C190.29,-108.21 242.75,-136.36 291.22,-153 305.65,-157.95 321.28,-162.12 336.59,-165.59"/>
<polygon fill="black" stroke="black" points="335.68,-168.97 346.19,-167.67 337.16,-162.13 335.68,-168.97"/>
</g>
<!-- pointing_device_handle_buttons -->
<g id="node3" class="node">
<title>pointing_device_handle_buttons</title>
<ellipse fill="none" stroke="black" cx="426" cy="-126" rx="131.19" ry="18"/>
<text xml:space="preserve" text-anchor="middle" x="426" y="-120.95" font-family="Times,serif" font-size="14.00">pointing_device_handle_buttons</text>
</g>
<!-- pimoroni_trackball_get_report&#45;&gt;pointing_device_handle_buttons -->
<g id="edge2" class="edge">
<title>pimoroni_trackball_get_report&#45;&gt;pointing_device_handle_buttons</title>
<path fill="none" stroke="black" d="M226.07,-83.37C267.99,-90.38 316.08,-99.32 354.47,-107.3"/>
<polygon fill="black" stroke="black" points="353.55,-110.69 364.06,-109.32 354.99,-103.84 353.55,-110.69"/>
</g>
<!-- pimoroni_trackball_get_report&#45;&gt;pointing_device_handle_buttons -->
<g id="edge7" class="edge">
<title>pimoroni_trackball_get_report&#45;&gt;pointing_device_handle_buttons</title>
<path fill="none" stroke="black" d="M187.17,-88.17C223.25,-95.9 270.69,-104.9 313.7,-112.28"/>
<polygon fill="black" stroke="black" points="312.88,-115.69 323.33,-113.92 314.06,-108.79 312.88,-115.69"/>
</g>
<!-- pimoroni_trackball_get_offsets -->
<g id="node4" class="node">
<title>pimoroni_trackball_get_offsets</title>
<ellipse fill="none" stroke="black" cx="426" cy="-72" rx="127.1" ry="18"/>
<text xml:space="preserve" text-anchor="middle" x="426" y="-66.95" font-family="Times,serif" font-size="14.00">pimoroni_trackball_get_offsets</text>
</g>
<!-- pimoroni_trackball_get_report&#45;&gt;pimoroni_trackball_get_offsets -->
<g id="edge3" class="edge">
<title>pimoroni_trackball_get_report&#45;&gt;pimoroni_trackball_get_offsets</title>
<path fill="none" stroke="black" d="M244.05,-65.4C260.98,-65.24 278.52,-65.21 295.71,-65.3"/>
<polygon fill="black" stroke="black" points="295.41,-68.8 305.43,-65.37 295.45,-61.8 295.41,-68.8"/>
</g>
<!-- pimoroni_trackball_get_report&#45;&gt;pimoroni_trackball_get_offsets -->
<g id="edge4" class="edge">
<title>pimoroni_trackball_get_report&#45;&gt;pimoroni_trackball_get_offsets</title>
<path fill="none" stroke="black" d="M244.05,-78.6C260.98,-78.76 278.52,-78.79 295.71,-78.7"/>
<polygon fill="black" stroke="black" points="295.45,-82.2 305.43,-78.63 295.41,-75.2 295.45,-82.2"/>
</g>
<!-- pimoroni_trackball_adapt_values -->
<g id="node5" class="node">
<title>pimoroni_trackball_adapt_values</title>
<ellipse fill="none" stroke="black" cx="426" cy="-18" rx="134.78" ry="18"/>
<text xml:space="preserve" text-anchor="middle" x="426" y="-12.95" font-family="Times,serif" font-size="14.00">pimoroni_trackball_adapt_values</text>
</g>
<!-- pimoroni_trackball_get_report&#45;&gt;pimoroni_trackball_adapt_values -->
<g id="edge5" class="edge">
<title>pimoroni_trackball_get_report&#45;&gt;pimoroni_trackball_adapt_values</title>
<path fill="none" stroke="black" d="M187.17,-55.83C222.86,-48.18 269.67,-39.3 312.32,-31.96"/>
<polygon fill="black" stroke="black" points="312.88,-35.41 322.15,-30.28 311.7,-28.51 312.88,-35.41"/>
</g>
<!-- pimoroni_trackball_get_report&#45;&gt;pimoroni_trackball_adapt_values -->
<g id="edge6" class="edge">
<title>pimoroni_trackball_get_report&#45;&gt;pimoroni_trackball_adapt_values</title>
<path fill="none" stroke="black" d="M226.07,-60.63C267.84,-53.64 315.72,-44.74 354.04,-36.79"/>
<polygon fill="black" stroke="black" points="354.55,-40.26 363.62,-34.77 353.11,-33.41 354.55,-40.26"/>
</g>
<!-- i2c_read_register -->
<g id="node9" class="node">
<title>i2c_read_register</title>
<ellipse fill="none" stroke="black" cx="674.74" cy="-180" rx="74.89" ry="18"/>
<text xml:space="preserve" text-anchor="middle" x="674.74" y="-174.95" font-family="Times,serif" font-size="14.00">i2c_read_register</text>
</g>
<!-- read_pimoroni_trackball&#45;&gt;i2c_read_register -->
<g id="edge10" class="edge">
<title>read_pimoroni_trackball&#45;&gt;i2c_read_register</title>
<path fill="none" stroke="black" d="M528.78,-180C548.55,-180 569.09,-180 588.27,-180"/>
<polygon fill="black" stroke="black" points="588.19,-183.5 598.19,-180 588.19,-176.5 588.19,-183.5"/>
</g>
<!-- pimoroni_trackball_device_init -->
<g id="node6" class="node">
<title>pimoroni_trackball_device_init</title>
<ellipse fill="none" stroke="black" cx="127.61" cy="-261" rx="127.61" ry="18"/>
<text xml:space="preserve" text-anchor="middle" x="127.61" y="-255.95" font-family="Times,serif" font-size="14.00">pimoroni_trackball_device_init</text>
</g>
<!-- i2c_init -->
<g id="node7" class="node">
<title>i2c_init</title>
<ellipse fill="none" stroke="black" cx="426" cy="-288" rx="39.07" ry="18"/>
<text xml:space="preserve" text-anchor="middle" x="426" y="-282.95" font-family="Times,serif" font-size="14.00">i2c_init</text>
</g>
<!-- pimoroni_trackball_device_init&#45;&gt;i2c_init -->
<g id="edge8" class="edge">
<title>pimoroni_trackball_device_init&#45;&gt;i2c_init</title>
<path fill="none" stroke="black" d="M236.03,-270.79C283.93,-275.15 337.98,-280.07 375.97,-283.53"/>
<polygon fill="black" stroke="black" points="375.43,-287 385.71,-284.42 376.07,-280.03 375.43,-287"/>
</g>
<!-- pimoroni_trackball_set_rgbw -->
<g id="node8" class="node">
<title>pimoroni_trackball_set_rgbw</title>
<ellipse fill="none" stroke="black" cx="426" cy="-234" rx="120.45" ry="18"/>
<text xml:space="preserve" text-anchor="middle" x="426" y="-228.95" font-family="Times,serif" font-size="14.00">pimoroni_trackball_set_rgbw</text>
</g>
<!-- pimoroni_trackball_device_init&#45;&gt;pimoroni_trackball_set_rgbw -->
<g id="edge9" class="edge">
<title>pimoroni_trackball_device_init&#45;&gt;pimoroni_trackball_set_rgbw</title>
<path fill="none" stroke="black" d="M236.03,-251.21C260.31,-249 286.17,-246.65 310.72,-244.41"/>
<polygon fill="black" stroke="black" points="310.75,-247.92 320.39,-243.53 310.12,-240.95 310.75,-247.92"/>
</g>
<!-- i2c_write_register -->
<g id="node10" class="node">
<title>i2c_write_register</title>
<ellipse fill="none" stroke="black" cx="674.74" cy="-234" rx="77.97" ry="18"/>
<text xml:space="preserve" text-anchor="middle" x="674.74" y="-228.95" font-family="Times,serif" font-size="14.00">i2c_write_register</text>
</g>
<!-- pimoroni_trackball_set_rgbw&#45;&gt;i2c_write_register -->
<g id="edge11" class="edge">
<title>pimoroni_trackball_set_rgbw&#45;&gt;i2c_write_register</title>
<path fill="none" stroke="black" d="M546.75,-234C559.73,-234 572.75,-234 585.26,-234"/>
<polygon fill="black" stroke="black" points="585.07,-237.5 595.07,-234 585.07,-230.5 585.07,-237.5"/>
</g>
<!-- timer_elapsed_fast -->
<g id="node11" class="node">
<title>timer_elapsed_fast</title>
<ellipse fill="none" stroke="black" cx="127.61" cy="-342" rx="81.04" ry="18"/>
<text xml:space="preserve" text-anchor="middle" x="127.61" y="-336.95" font-family="Times,serif" font-size="14.00">timer_elapsed_fast</text>
</g>
<!-- timer_elapsed -->
<g id="node12" class="node">
<title>timer_elapsed</title>
<ellipse fill="none" stroke="black" cx="426" cy="-342" rx="63.12" ry="18"/>
<text xml:space="preserve" text-anchor="middle" x="426" y="-336.95" font-family="Times,serif" font-size="14.00">timer_elapsed</text>
</g>
<!-- timer_elapsed_fast&#45;&gt;timer_elapsed -->
<g id="edge12" class="edge">
<title>timer_elapsed_fast&#45;&gt;timer_elapsed</title>
<path fill="none" stroke="black" d="M208.82,-342C253.2,-342 307.96,-342 351.27,-342"/>
<polygon fill="black" stroke="black" points="351.07,-345.5 361.07,-342 351.07,-338.5 351.07,-345.5"/>
</g>
<!-- timer_read_fast -->
<g id="node13" class="node">
<title>timer_read_fast</title>
<ellipse fill="none" stroke="black" cx="127.61" cy="-396" rx="69.26" ry="18"/>
<text xml:space="preserve" text-anchor="middle" x="127.61" y="-390.95" font-family="Times,serif" font-size="14.00">timer_read_fast</text>
</g>
<!-- timer_read -->
<g id="node14" class="node">
<title>timer_read</title>
<ellipse fill="none" stroke="black" cx="426" cy="-396" rx="51.35" ry="18"/>
<text xml:space="preserve" text-anchor="middle" x="426" y="-390.95" font-family="Times,serif" font-size="14.00">timer_read</text>
</g>
<!-- timer_read_fast&#45;&gt;timer_read -->
<g id="edge13" class="edge">
<title>timer_read_fast&#45;&gt;timer_read</title>
<path fill="none" stroke="black" d="M197.35,-396C247.38,-396 314.56,-396 362.96,-396"/>
<polygon fill="black" stroke="black" points="362.7,-399.5 372.7,-396 362.7,-392.5 362.7,-399.5"/>
</g>
</g>
</svg>
